<?xml version="1.0" encoding="utf-8"?>
<!-- Generator: Adobe Illustrator 24.0.1, SVG Export Plug-In . SVG Version: 6.00 Build 0)  -->
<svg version="1.1" id="Layer_1" xmlns="http://www.w3.org/2000/svg" xmlns:xlink="http://www.w3.org/1999/xlink" x="0px" y="0px"
	 viewBox="0 0 1366 768" style="enable-background:new 0 0 1366 768;" xml:space="preserve">
<path d="M175,144l-1.6-1.4c-3.43-3.17-6.27-5.88-8.5-8.15c-2.23-2.27-4.02-4.28-5.35-6.05c-1.33-1.77-2.26-3.36-2.78-4.77
	c-0.52-1.42-0.77-2.84-0.77-4.28c0-2.73,0.93-5.03,2.77-6.88c1.85-1.85,4.14-2.78,6.88-2.78c1.87,0,3.59,0.47,5.18,1.4
	c1.58,0.93,2.98,2.3,4.18,4.1c1.33-1.87,2.77-3.25,4.32-4.15c1.55-0.9,3.23-1.35,5.03-1.35c2.73,0,5.02,0.93,6.88,2.78
	c1.85,1.85,2.77,4.14,2.77,6.88c0,1.43-0.26,2.86-0.77,4.28c-0.52,1.42-1.44,3.01-2.78,4.77c-1.33,1.77-3.12,3.78-5.35,6.05
	c-2.23,2.27-5.07,4.98-8.5,8.15L175,144z M175,141c3.33-3.03,6.07-5.63,8.23-7.8c2.15-2.17,3.85-4.07,5.1-5.7s2.13-3.08,2.65-4.35
	c0.52-1.27,0.77-2.53,0.77-3.8c0-2.13-0.7-3.9-2.1-5.3c-1.4-1.4-3.15-2.1-5.25-2.1c-1.73,0-3.31,0.51-4.72,1.53
	s-2.66,2.53-3.73,4.53h-1.9c-1.07-1.97-2.32-3.47-3.75-4.5s-3-1.55-4.7-1.55c-2.1,0-3.85,0.7-5.25,2.1c-1.4,1.4-2.1,3.18-2.1,5.35
	c0,1.23,0.26,2.48,0.77,3.75c0.52,1.27,1.4,2.72,2.65,4.38s2.96,3.55,5.13,5.7C168.97,135.38,171.7,137.97,175,141z"/>
</svg>
