<svg xmlns="http://www.w3.org/2000/svg" xmlns:xlink="http://www.w3.org/1999/xlink" width="213.253" height="47.48" viewBox="0 0 213.253 47.48">
  <defs>
    <radialGradient id="radial-gradient" cx="0.75" cy="0.3" r="1.033" gradientTransform="translate(0.006) scale(0.987 1)" gradientUnits="objectBoundingBox">
      <stop offset="0" stop-color="#008ed2"/>
      <stop offset="0.66" stop-color="#00398f"/>
      <stop offset="1" stop-color="#0072c0"/>
    </radialGradient>
    <radialGradient id="radial-gradient-2" cx="0.77" cy="0.58" r="0.951" gradientTransform="translate(-0.01) scale(1.021 1)" gradientUnits="objectBoundingBox">
      <stop offset="0" stop-color="#b9e6fb"/>
      <stop offset="0.63" stop-color="#00b8eb"/>
      <stop offset="1" stop-color="#88d5f8"/>
    </radialGradient>
  </defs>
  <g id="logo_w" transform="translate(-6252 119)">
    <g id="그룹_1" data-name="그룹 1" transform="translate(5950.07 -463.76)">
      <path id="패스_1" data-name="패스 1" d="M342.423,351.68a23.738,23.738,0,1,1-27.9-4.146l3.282-.243S330.334,340.794,342.423,351.68Z" fill-rule="evenodd" fill="url(#radial-gradient)"/>
      <path id="패스_2" data-name="패스 2" d="M309.76,372.843a16.688,16.688,0,0,0,14.566,2.6,16.1,16.1,0,0,0,9.869-8.6c1.888-4.387.877-10.053-4.18-11.677-3.1-1-6.867.434-9.3,2.374-2.011,1.6-4.149,4.016-7.074,2.966-2.285-.821-3.126-3.689-1.168-7.114,1.942-3.4,6.1-6.7,12.715-7.155a24.463,24.463,0,0,1,17.238,5.438,23.754,23.754,0,0,0-27.9-4.146,19.078,19.078,0,0,0-8.109,8.532c-2.592,5.544-2.023,12.649,3.345,16.777Zm-4.8-15.956c-3.207,7.53-.85,16.794,6.577,21,6.775,3.838,16.181,3.367,22.075-2.348,1.9-1.841,3.348-4.621,5.68-5.818a3.635,3.635,0,0,1,3.587.016c1.866,1.247,1.926,3.533,1.248,5.669A15.156,15.156,0,0,1,340.4,381.2a21.938,21.938,0,0,1-10.111,6.016,23.837,23.837,0,0,1-20.178-3.633,20.35,20.35,0,0,1-6.707-23.344A23.6,23.6,0,0,1,304.961,356.887Z" fill-rule="evenodd" fill="url(#radial-gradient-2)"/>
    </g>
    <path id="패스_3" data-name="패스 3" d="M504.1,354.722v-1.667l-11.762.008q0,4.407.006,8.813a2.023,2.023,0,0,0,.67,1.607,2.707,2.707,0,0,0,1.843.583l10.18-.007v-1.692l-9.116.007-.006-7.646,8.187-.006Zm-99.533,13.331a1.5,1.5,0,0,0-1.539-1.441l-4.984,0,0-3.978,9.442-.007v-1.667l-4.039,0a4.578,4.578,0,0,0,.545-.858,6.285,6.285,0,0,0,.328-.954,9.289,9.289,0,0,0,.244-.988,5.769,5.769,0,0,0,.081-.964q0-1.638,0-3.276a1.5,1.5,0,0,0-1.54-1.44l-15.136.012v1.668l13.072-.011,0,3.144a15.068,15.068,0,0,1-.121,1.906,7.133,7.133,0,0,1-.45,1.763l-15.255.011v1.667l9.251-.006,0,3.978-6.6.005v1.667l13.073-.01,0,6.05,3.63,0q0-3.138-.005-6.275Zm92.656-1.059h-2.038l0,5a2.022,2.022,0,0,0,.712,1.655,2.828,2.828,0,0,0,1.856.582l13.946-.009v-1.667l-12.937.009,0-4.132a1.5,1.5,0,0,0-1.538-1.441Zm12.406-14.706a1.5,1.5,0,0,1,1.539,1.44l0,3.3,4.012,0v1.667l-4.012,0,.007,9.7-3.575,0q-.006-8.052-.013-16.1l2.038,0Zm-29.9.023h-1.913q.009,10.969.017,21.938l3.357,0-.011-14.2,2.456,0,.011,14.2,3.358,0q-.008-10.292-.016-20.584a1.405,1.405,0,0,0-1.445-1.353l-1.913,0q0,3.036,0,6.073l-2.456,0q0-2.359,0-4.72a1.4,1.4,0,0,0-1.445-1.352Zm-23.369.017-2.053,0q0,5.931.009,11.861l3.6,0,0-3.311,4.011,0v-1.667l-4.011,0,0-1.926,4.011,0v-1.667l-4.011,0,0-1.837a1.507,1.507,0,0,0-1.551-1.451Zm-29.615.023h-1.912q.009,10.97.016,21.937l3.358,0-.01-12.933,2.046,0,.01,12.933,3.356,0q-.008-10.291-.016-20.584a1.4,1.4,0,0,0-1.444-1.352h-1.913q0,3.668.006,7.336l-2.046,0q0-2.992-.005-5.983a1.4,1.4,0,0,0-1.446-1.352Zm-61.651,15.17-2.037,0,0,4.574a2.04,2.04,0,0,0,.7,1.654,2.77,2.77,0,0,0,1.843.583l13.645-.011v-1.667l-12.609.01,0-3.7a1.5,1.5,0,0,0-1.538-1.441ZM377.2,352.388a1.5,1.5,0,0,1,1.539,1.44q0,1.852,0,3.7l4.012,0v1.691l-4.012,0,.007,9.29-3.576,0q0-8.064-.011-16.127Zm88.227,1.41,0,2,3.93,0a17.562,17.562,0,0,1-.692,5.264,16.53,16.53,0,0,1-1.13,2.884,12.371,12.371,0,0,1-1.432,2.228,13.848,13.848,0,0,1-1.541,1.609l2.077,2.023a6.83,6.83,0,0,0,1.391-1.216,15.811,15.811,0,0,0,1.281-1.645,14.182,14.182,0,0,0,1.049-1.811,16.038,16.038,0,0,0,.723-1.715,17.309,17.309,0,0,0,2.076,2.57q1.2,1.239,2.786,2.666l1.281-1.692c-.6-.538-1.148-1.044-1.639-1.512s-.944-.951-1.366-1.439a14.482,14.482,0,0,1-1.174-1.548,16.988,16.988,0,0,1-1.066-1.9,14.868,14.868,0,0,0,.38-2.168q.135-1.238.217-2.549l3.63,0,0-2.048-10.781.007Zm-14.031,11.135a7.68,7.68,0,0,0-2.482.382,6.517,6.517,0,0,0-2.02,1.122,5.319,5.319,0,0,0-1.418,1.657,4.3,4.3,0,0,0,0,3.882,5.31,5.31,0,0,0,1.421,1.629,6.338,6.338,0,0,0,2.022,1.13,8.472,8.472,0,0,0,4.953,0A6.229,6.229,0,0,0,455.9,373.6a5.484,5.484,0,0,0,1.4-1.633,4.176,4.176,0,0,0,0-3.882,5.5,5.5,0,0,0-1.406-1.653,6.328,6.328,0,0,0-2.034-1.119,7.7,7.7,0,0,0-2.471-.379Zm0,1.667a2.186,2.186,0,0,1,1.175.32,3.214,3.214,0,0,1,.9.821,4.041,4.041,0,0,1,.561,1.108,3.654,3.654,0,0,1-.584,3.464,2.871,2.871,0,0,1-.888.776,2.335,2.335,0,0,1-1.159.3,2.4,2.4,0,0,1-1.174-.284,2.908,2.908,0,0,1-.9-.762,3.666,3.666,0,0,1-.561-1.084,3.83,3.83,0,0,1-.206-1.227,4,4,0,0,1,.191-1.2,3.736,3.736,0,0,1,.545-1.107,3.032,3.032,0,0,1,.9-.811,2.293,2.293,0,0,1,1.2-.31Zm-13.3-8.328a4.747,4.747,0,0,1,.476-2.119,5.248,5.248,0,0,1,1.459-1.764,7.1,7.1,0,0,1,2.128-1.217,8.218,8.218,0,0,1,5.09,0,6.97,6.97,0,0,1,2.142,1.214,5.3,5.3,0,0,1,1.434,1.762,4.938,4.938,0,0,1,0,4.239,5.329,5.329,0,0,1-1.432,1.764,6.918,6.918,0,0,1-2.141,1.216,8.2,8.2,0,0,1-5.089,0,7.114,7.114,0,0,1-2.13-1.213,5.263,5.263,0,0,1-1.461-1.761,4.742,4.742,0,0,1-.48-2.121Zm9.634-.03a4.445,4.445,0,0,0-.22-1.37,4.618,4.618,0,0,0-.6-1.226,2.971,2.971,0,0,0-.956-.881,2.459,2.459,0,0,0-1.255-.332,2.5,2.5,0,0,0-1.3.334,3.1,3.1,0,0,0-.94.883,3.807,3.807,0,0,0-.572,1.215,5.132,5.132,0,0,0-.19,1.381,5.231,5.231,0,0,0,.192,1.429,3.821,3.821,0,0,0,.574,1.215,3.1,3.1,0,0,0,.942.881,2.5,2.5,0,0,0,1.3.332,2.461,2.461,0,0,0,1.255-.334,2.992,2.992,0,0,0,.954-.883,4.583,4.583,0,0,0,.6-1.226,4.5,4.5,0,0,0,.218-1.418Zm-32.629-3.86,4.967,0V352.83l-4.967,0v1.548Zm2.485,4.4a1.781,1.781,0,0,1,1.026.309,2.762,2.762,0,0,1,.751.786,4.125,4.125,0,0,1,.477,1.036,3.816,3.816,0,0,1,.179,1.107,4.212,4.212,0,0,1-.163,1.131,3.787,3.787,0,0,1-.49,1.062,2.648,2.648,0,0,1-.75.773,1.821,1.821,0,0,1-1.025.3,1.911,1.911,0,0,1-1.077-.3,2.729,2.729,0,0,1-.779-.773,3.512,3.512,0,0,1-.45-1.048,4.481,4.481,0,0,1-.151-1.143,4.143,4.143,0,0,1,.162-1.132,3.4,3.4,0,0,1,.491-1.036,2.939,2.939,0,0,1,.778-.775,1.812,1.812,0,0,1,1.021-.3ZM411.912,356v1.62l3.548,0a8.2,8.2,0,0,0-2.646,2.026,3.748,3.748,0,0,0-.871,2.383,4.282,4.282,0,0,0,.41,1.858,4.994,4.994,0,0,0,1.256,1.571,5.573,5.573,0,0,0,1.789,1.07,6.427,6.427,0,0,0,2.2.357,6.176,6.176,0,0,0,2.184-.361,5.377,5.377,0,0,0,1.746-1.072,6.025,6.025,0,0,0,1.269-1.56,3.854,3.854,0,0,0,.448-1.871,3.706,3.706,0,0,0-.889-2.381,8.4,8.4,0,0,0-2.636-2.023l3.521,0V356L411.912,356Zm-49.195-2.295,6.195-.005,0-1.548-6.194,0v1.549Zm-3.766,1.122,0,1.643,3.52,0a7.449,7.449,0,0,0-1.99,1.978,3.853,3.853,0,0,0-.654,2.1,4.213,4.213,0,0,0,.425,1.869A4.619,4.619,0,0,0,361.578,364a6.682,6.682,0,0,0,1.953,1.083,6.859,6.859,0,0,0,2.279.367,7.037,7.037,0,0,0,2.278-.359,6.226,6.226,0,0,0,1.951-1.1,4.9,4.9,0,0,0,1.309-1.585,4.109,4.109,0,0,0,.434-1.87,3.768,3.768,0,0,0-.683-2.119,7.672,7.672,0,0,0-1.994-1.952l3.575,0,0-1.644-13.727.011Zm6.852,2.353a1.939,1.939,0,0,1,1.078.309,3.18,3.18,0,0,1,.833.785,4.072,4.072,0,0,1,.52,1.072,3.883,3.883,0,0,1,.192,1.191,4.155,4.155,0,0,1-.177,1.19,3.711,3.711,0,0,1-.531,1.1,2.765,2.765,0,0,1-.818.787,2.1,2.1,0,0,1-2.2,0,3.048,3.048,0,0,1-.833-.81,4.177,4.177,0,0,1-.506-1.1,3.939,3.939,0,0,1,0-2.335,3.853,3.853,0,0,1,.5-1.071,3.067,3.067,0,0,1,.833-.811A1.984,1.984,0,0,1,365.8,357.184Z" transform="translate(5950.07 -463.76)" fill="#fff"/>
    <g id="그룹_2" data-name="그룹 2" transform="translate(5950.07 -463.76)">
      <path id="패스_4" data-name="패스 4" d="M361.256,379.12h1.286v2.7l2.315-2.7h1.58l-2.637,2.962,2.747,3.322h-1.681l-2.306-2.917h-.018V385.4h-1.286Z" fill="#fff"/>
      <path id="패스_5" data-name="패스 5" d="M371.447,379.013a3.252,3.252,0,1,1-3.141,3.231A2.966,2.966,0,0,1,371.447,379.013Zm0,5.509c1.314,0,1.8-1.143,1.8-2.278,0-1.107-.524-2.241-1.8-2.241s-1.8,1.134-1.8,2.241C369.647,383.379,370.134,384.522,371.447,384.522Z" fill="#fff"/>
      <path id="패스_6" data-name="패스 6" d="M376.889,379.12h1.387c1.378,0,3.022-.045,3.022,1.7a1.447,1.447,0,0,1-1.322,1.458v.019c.349.026.551.369.679.647l1.029,2.458h-1.433l-.771-1.963c-.184-.467-.35-.647-.891-.647h-.414v2.61h-1.286Zm1.286,2.683h.423c.634,0,1.359-.09,1.359-.873,0-.756-.716-.82-1.359-.82h-.423Z" fill="#fff"/>
      <path id="패스_7" data-name="패스 7" d="M383.848,379.12h3.784v.99h-2.5v1.549h2.287v.99h-2.287v1.765h2.517v.99h-3.8Z" fill="#fff"/>
      <path id="패스_8" data-name="패스 8" d="M392.028,379.12h1.452L396,385.4h-1.424l-.55-1.44h-2.6l-.561,1.44h-1.332Zm.707,1.261h-.018l-.928,2.593h1.874Z" fill="#fff"/>
      <path id="패스_9" data-name="패스 9" d="M404.679,379.013a3.252,3.252,0,1,1-3.142,3.231A2.965,2.965,0,0,1,404.679,379.013Zm0,5.509c1.313,0,1.8-1.143,1.8-2.278,0-1.107-.523-2.241-1.8-2.241s-1.8,1.134-1.8,2.241C402.879,383.379,403.365,384.522,404.679,384.522Z" fill="#fff"/>
      <path id="패스_10" data-name="패스 10" d="M414.9,385.314a6.616,6.616,0,0,1-1.459.2c-2.076,0-3.519-1.018-3.519-3.143,0-2.151,1.341-3.357,3.519-3.357a4.334,4.334,0,0,1,1.451.26l-.091,1.063a2.689,2.689,0,0,0-1.389-.333,2.117,2.117,0,0,0-2.149,2.277,2.09,2.09,0,0,0,2.178,2.242,3.635,3.635,0,0,0,1.4-.261Z" fill="#fff"/>
      <path id="패스_11" data-name="패스 11" d="M417.08,379.12h3.783v.99h-2.5v1.549h2.287v.99h-2.287v1.765h2.517v.99h-3.8Z" fill="#fff"/>
      <path id="패스_12" data-name="패스 12" d="M425.259,379.12h1.452l2.517,6.284H427.8l-.55-1.44h-2.6l-.561,1.44h-1.332Zm.707,1.261h-.017l-.928,2.593h1.873Z" fill="#fff"/>
      <path id="패스_13" data-name="패스 13" d="M431.226,379.12h1.58l2.444,4.7h.017v-4.7H436.5V385.4h-1.571l-2.453-4.7h-.017v4.7h-1.231Z" fill="#fff"/>
      <path id="패스_14" data-name="패스 14" d="M442.949,379.12h3.564v.99h-2.277v1.549H446.4v.99h-2.168V385.4h-1.287Z" fill="#fff"/>
      <path id="패스_15" data-name="패스 15" d="M451.607,379.013a3.252,3.252,0,1,1-3.141,3.231A2.967,2.967,0,0,1,451.607,379.013Zm0,5.509c1.315,0,1.8-1.143,1.8-2.278,0-1.107-.524-2.241-1.8-2.241s-1.8,1.134-1.8,2.241C449.806,383.379,450.3,384.522,451.607,384.522Z" fill="#fff"/>
      <path id="패스_16" data-name="패스 16" d="M457.113,379.12H458.4v3.628c0,1.072.348,1.774,1.332,1.774s1.332-.7,1.332-1.774V379.12h1.285v4.016c0,1.683-.974,2.377-2.617,2.377s-2.619-.694-2.619-2.377Z" fill="#fff"/>
      <path id="패스_17" data-name="패스 17" d="M464.963,379.12h1.58l2.443,4.7H469v-4.7h1.23V385.4h-1.57l-2.453-4.7h-.018v4.7h-1.23Z" fill="#fff"/>
      <path id="패스_18" data-name="패스 18" d="M472.894,379.12h1.754c1.965,0,3.7.649,3.7,3.143s-1.736,3.141-3.7,3.141h-1.754Zm1.285,5.294h.717a2.152,2.152,0,0,0,0-4.3h-.717Z" fill="#fff"/>
      <path id="패스_19" data-name="패스 19" d="M482.6,379.12h1.451l2.518,6.284h-1.424l-.551-1.44h-2.6l-.561,1.44H480.1Zm.707,1.261h-.017l-.928,2.593h1.873Z" fill="#fff"/>
      <path id="패스_20" data-name="패스 20" d="M489.06,380.11h-1.838v-.99h4.961v.99h-1.838V385.4H489.06Z" fill="#fff"/>
      <path id="패스_21" data-name="패스 21" d="M494.127,379.12h1.287V385.4h-1.287Z" fill="#fff"/>
      <path id="패스_22" data-name="패스 22" d="M500.857,379.013a3.252,3.252,0,1,1-3.141,3.231A2.967,2.967,0,0,1,500.857,379.013Zm0,5.509c1.315,0,1.8-1.143,1.8-2.278,0-1.107-.524-2.241-1.8-2.241s-1.8,1.134-1.8,2.241C499.056,383.379,499.545,384.522,500.857,384.522Z" fill="#fff"/>
      <path id="패스_23" data-name="패스 23" d="M506.345,379.12h1.58l2.444,4.7h.017v-4.7h1.231V385.4h-1.57l-2.454-4.7h-.017v4.7h-1.231Z" fill="#fff"/>
    </g>
  </g>
</svg>
