<svg id="sns_blog" xmlns="http://www.w3.org/2000/svg" width="24.989" height="21.021" viewBox="0 0 24.989 21.021">
  <path id="패스_58" data-name="패스 58" d="M143.072,288.29h-17.1a3.954,3.954,0,0,0-3.947,3.961v9.4a3.954,3.954,0,0,0,3.947,3.961h5.889l2.01,3.272a.872.872,0,0,0,.065.093.673.673,0,0,0,1.166,0,.482.482,0,0,0,.068-.1l2.01-3.272h5.889a3.954,3.954,0,0,0,3.947-3.961v-9.4A3.953,3.953,0,0,0,143.072,288.29Z" transform="translate(-122.03 -288.29)" fill="#fff"/>
  <g id="그룹_18" data-name="그룹 18" transform="translate(2.718 4.918)">
    <g id="그룹_14" data-name="그룹 14" transform="translate(0 0)">
      <path id="패스_48" data-name="패스 48" d="M148.181,333.533a2.033,2.033,0,0,0-1.3.6V331.71h-1.53v6.374H146.9v-.5a1.467,1.467,0,0,0,1.285.659,2.255,2.255,0,0,0,2.156-2.379S150.258,333.533,148.181,333.533Zm-.337,3.364a.983.983,0,1,1,.983-.984A.984.984,0,0,1,147.844,336.9Z" transform="translate(-145.35 -331.567)" fill="#3d3d3d"/>
      <path id="패스_49" data-name="패스 49" d="M192.35,330.48v1.474s.7-.031.7,1.268V337h1.475v-4.122S194.586,330.48,192.35,330.48Z" transform="translate(-186.872 -330.48)" fill="#3d3d3d"/>
      <path id="패스_50" data-name="패스 50" d="M222.766,347.52s-2.528,0-2.528,2.36a2.285,2.285,0,0,0,2.528,2.329s2.587,0,2.587-2.329A2.326,2.326,0,0,0,222.766,347.52Zm0,3.344a.983.983,0,1,1,.983-.984A.984.984,0,0,1,222.766,350.864Z" transform="translate(-211.508 -345.534)" fill="#3d3d3d"/>
      <path id="패스_51" data-name="패스 51" d="M274.2,347.672v.428a1.671,1.671,0,0,0-1.283-.583,2.11,2.11,0,0,0-2.165,2.344s-.025,2.269,2.105,2.269a1.75,1.75,0,0,0,1.343-.583v.357s.107,1.118-.974,1.118h-.368v1.356h.594a2.221,2.221,0,0,0,2.236-2.39v-4.316Zm-.915,3.189a.983.983,0,1,1,.983-.984A.983.983,0,0,1,273.283,350.861Z" transform="translate(-256.133 -345.53)" fill="#3d3d3d"/>
    </g>
  </g>
</svg>
