<svg xmlns="http://www.w3.org/2000/svg" width="24.989" height="17.493" viewBox="0 0 24.989 17.493">
  <path id="sns_youtube" d="M156.077,235.982a3.13,3.13,0,0,0-2.209-2.209c-1.949-.523-9.763-.523-9.763-.523s-7.815,0-9.763.523a3.132,3.132,0,0,0-2.21,2.209,34.943,34.943,0,0,0,0,12.03,3.128,3.128,0,0,0,2.21,2.209c1.949.522,9.763.522,9.763.522s7.814,0,9.763-.522a3.13,3.13,0,0,0,2.209-2.209,34.943,34.943,0,0,0,0-12.03Zm-14.472,9.763v-7.5L148.1,242Z" transform="translate(-131.61 -233.25)" fill="#fff"/>
</svg>
