<svg id="sns_insta" xmlns="http://www.w3.org/2000/svg" width="21.033" height="21.021" viewBox="0 0 21.033 21.021">
  <g id="그룹_10" data-name="그룹 10" transform="translate(0 0)">
    <path id="SVGID_1_" d="M12.46,9.072A7.562,7.562,0,0,0,9.9,9.561a5.3,5.3,0,0,0-1.85,1.218,5.045,5.045,0,0,0-1.206,1.862A7.868,7.868,0,0,0,6.36,15.2c-.048,1.122-.06,1.48-.06,4.333s.024,3.211.072,4.333A7.423,7.423,0,0,0,6.861,26.4a5.236,5.236,0,0,0,1.218,1.862,5.045,5.045,0,0,0,1.862,1.206,7.868,7.868,0,0,0,2.555.489c1.122.048,1.48.06,4.333.06s3.211-.012,4.333-.072a7.562,7.562,0,0,0,2.555-.489,5.236,5.236,0,0,0,1.862-1.218,5.045,5.045,0,0,0,1.206-1.862,7.867,7.867,0,0,0,.489-2.555c.048-1.122.06-1.48.06-4.333s-.012-3.211-.072-4.333a7.562,7.562,0,0,0-.489-2.555,5.236,5.236,0,0,0-1.218-1.862,5.045,5.045,0,0,0-1.862-1.206,7.868,7.868,0,0,0-2.555-.489C20,9.012,19.646,9,16.793,9s-3.211.024-4.333.072m.119,18.992a5.829,5.829,0,0,1-1.946-.358A3.511,3.511,0,0,1,8.64,25.712a5.817,5.817,0,0,1-.37-1.946c-.048-1.11-.06-1.444-.072-4.25s0-3.139.048-4.25A5.829,5.829,0,0,1,8.6,13.321,3.511,3.511,0,0,1,10.6,11.328a6.146,6.146,0,0,1,1.946-.37c1.11-.048,1.444-.06,4.238-.072s3.139,0,4.25.048a5.829,5.829,0,0,1,1.946.358,3.16,3.16,0,0,1,1.206.788,3.254,3.254,0,0,1,.788,1.206,6.146,6.146,0,0,1,.37,1.946c.048,1.11.06,1.444.072,4.238s0,3.139-.048,4.25a5.993,5.993,0,0,1-.358,1.958,3.511,3.511,0,0,1-1.993,1.993,6.146,6.146,0,0,1-1.946.37c-1.11.048-1.444.06-4.25.072s-3.128,0-4.238-.048M21.15,13.894A1.259,1.259,0,1,0,22.4,12.629a1.263,1.263,0,0,0-1.253,1.265m-9.729,5.622A5.4,5.4,0,1,0,16.8,14.109a5.39,5.39,0,0,0-5.384,5.407m1.886,0a3.5,3.5,0,1,1,3.509,3.5,3.513,3.513,0,0,1-3.509-3.5" transform="translate(-6.3 -9)" fill="#fff"/>
  </g>
</svg>
