<svg xmlns="http://www.w3.org/2000/svg" width="191.856" height="173.183" viewBox="0 0 191.856 173.183">
  <path id="heart2" d="M570.79,325.7l-8.079-7.068q-26-23.985-42.915-41.15a318.085,318.085,0,0,1-27.013-30.547q-10.1-13.382-14.012-24.109a62.632,62.632,0,0,1-3.911-21.586q0-20.7,14.012-34.711t34.711-14.012a50.525,50.525,0,0,1,26.127,7.068q11.992,7.07,21.08,20.7,10.1-14.134,21.834-20.952a49.654,49.654,0,0,1,25.368-6.815q20.7,0,34.711,14.012t14.012,34.711a62.633,62.633,0,0,1-3.911,21.586q-3.911,10.729-14.012,24.109a317.526,317.526,0,0,1-27.013,30.547q-16.914,17.167-42.915,41.15Zm0-15.147q25.242-22.974,41.527-39.38a309.5,309.5,0,0,0,25.75-28.778q9.465-12.371,13.378-21.963a50.47,50.47,0,0,0,3.911-19.187q0-16.156-10.6-26.76t-26.508-10.6a39.982,39.982,0,0,0-23.856,7.7q-10.729,7.7-18.806,22.845h-9.591q-8.081-14.893-18.934-22.721a39.7,39.7,0,0,0-23.728-7.826q-15.9,0-26.508,10.6T486.22,201.5a49.893,49.893,0,0,0,3.911,18.934q3.911,9.591,13.378,22.087T529.384,271.3Q545.8,287.584,570.79,310.555Z" transform="translate(-474.86 -152.52)"/>
</svg>
