<?xml version="1.0" encoding="utf-8"?>
<!-- Generator: Adobe Illustrator 24.0.1, SVG Export Plug-In . SVG Version: 6.00 Build 0)  -->
<svg version="1.1" id="Layer_1" xmlns="http://www.w3.org/2000/svg" xmlns:xlink="http://www.w3.org/1999/xlink" x="0px" y="0px"
	 viewBox="0 0 1366 768" style="enable-background:new 0 0 1366 768;" xml:space="preserve">
<path d="M714,584.24l-20.14-17.62c-43.21-39.86-78.87-74.05-106.98-102.58c-28.11-28.53-50.55-53.91-67.34-76.15
	c-16.78-22.24-28.42-42.27-34.93-60.1c-6.5-17.83-9.75-35.77-9.75-53.81c0-34.4,11.64-63.24,34.93-86.53s52.13-34.93,86.53-34.93
	c23.49,0,45.2,5.87,65.13,17.62s37.44,28.95,52.55,51.6c16.78-23.49,34.93-40.9,54.43-52.23c19.51-11.33,40.59-16.99,63.24-16.99
	c34.4,0,63.24,11.64,86.53,34.93c23.28,23.28,34.93,52.13,34.93,86.53c0,18.04-3.25,35.98-9.75,53.81
	c-6.5,17.83-18.14,37.86-34.93,60.1c-16.78,22.24-39.23,47.62-67.34,76.15c-28.11,28.53-63.77,62.72-106.98,102.58L714,584.24z
	 M714,546.48c41.95-38.18,76.46-70.9,103.52-98.17c27.06-27.27,48.46-51.18,64.19-71.74c15.73-20.56,26.85-38.81,33.35-54.75
	c6.5-15.94,9.75-31.88,9.75-47.83c0-26.85-8.81-49.09-26.43-66.71s-39.65-26.43-66.08-26.43c-21.82,0-41.64,6.4-59.47,19.19
	c-17.83,12.8-33.46,31.78-46.88,56.95h-23.91c-13.43-24.75-29.16-43.63-47.2-56.64c-18.04-13.01-37.76-19.51-59.15-19.51
	c-26.43,0-48.46,8.81-66.08,26.43c-17.62,17.62-26.43,40.07-26.43,67.34c0,15.52,3.25,31.26,9.75,47.2s17.62,34.3,33.35,55.06
	c15.73,20.77,37.23,44.68,64.5,71.74C638.06,475.68,672.47,508.3,714,546.48z"/>
</svg>
