<svg width="38" height="35" viewBox="0 0 38 35" fill="none" xmlns="http://www.w3.org/2000/svg">
<path d="M19 34.6L17.4 33.2001C13.9667 30.0334 11.1333 27.3167 8.9 25.05C6.66667 22.7834 4.88333 20.7667 3.55 19C2.21667 17.2334 1.29167 15.6417 0.775 14.225C0.258333 12.8084 0 11.3834 0 9.95005C0 7.21672 0.925 4.92505 2.775 3.07505C4.625 1.22505 6.91667 0.300049 9.65 0.300049C11.5167 0.300049 13.2417 0.766715 14.825 1.70005C16.4083 2.63338 17.8 4.00005 19 5.80005C20.3333 3.93338 21.775 2.55005 23.325 1.65005C24.875 0.750049 26.55 0.300049 28.35 0.300049C31.0833 0.300049 33.375 1.22505 35.225 3.07505C37.075 4.92505 38 7.21672 38 9.95005C38 11.3834 37.7417 12.8084 37.225 14.225C36.7083 15.6417 35.7833 17.2334 34.45 19C33.1167 20.7667 31.3333 22.7834 29.1 25.05C26.8667 27.3167 24.0333 30.0334 20.6 33.2001L19 34.6ZM19 31.6C22.3333 28.5667 25.075 25.9667 27.225 23.8C29.375 21.6334 31.075 19.7334 32.325 18.1C33.575 16.4667 34.4583 15.0167 34.975 13.75C35.4917 12.4834 35.75 11.2167 35.75 9.95005C35.75 7.81672 35.05 6.05005 33.65 4.65005C32.25 3.25005 30.5 2.55005 28.4 2.55005C26.6667 2.55005 25.0917 3.05838 23.675 4.07505C22.2583 5.09172 21.0167 6.60005 19.95 8.60005H18.05C16.9833 6.63338 15.7333 5.13338 14.3 4.10005C12.8667 3.06672 11.3 2.55005 9.6 2.55005C7.5 2.55005 5.75 3.25005 4.35 4.65005C2.95 6.05005 2.25 7.83338 2.25 10C2.25 11.2334 2.50833 12.4834 3.025 13.75C3.54167 15.0167 4.425 16.475 5.675 18.125C6.925 19.775 8.63333 21.6751 10.8 23.8251C12.9667 25.9751 15.7 28.5667 19 31.6Z" fill="black"/>
</svg>
