<svg width="188" height="32" viewBox="0 0 188 32" fill="none" xmlns="http://www.w3.org/2000/svg">
<path d="M19.5128 8.51669C19.5568 7.85803 19.3556 7.25636 19.0663 6.68636C18.8587 6.26836 18.5631 5.90736 18.2046 5.60969C17.9531 5.40069 17.6637 5.23603 17.3681 5.09036C16.9593 4.89403 16.5254 4.83069 16.0788 4.79269C15.6009 4.74836 15.1292 4.81169 14.6826 4.96369C14.3304 5.07769 13.9971 5.24236 13.7015 5.48303C13.5317 5.62236 13.3619 5.76803 13.2046 5.92003C13.1166 6.00869 13.0285 6.10369 12.9531 6.20503C12.7455 6.49636 12.5568 6.80669 12.3996 7.12969C12.2046 7.52869 12.1292 7.95303 12.0097 8.37103C11.9845 8.45969 11.9468 8.54203 11.909 8.61803C11.7707 8.89669 11.5128 8.82069 11.3556 8.66869C11.3178 8.63069 11.2801 8.58636 11.2487 8.54836C11.1166 8.37103 10.9405 8.35836 10.7455 8.41536C10.5946 8.45969 10.4499 8.51036 10.3053 8.56736C9.99708 8.69403 9.84614 8.59903 9.6889 8.37736C9.62601 8.28236 9.56312 8.18736 9.48765 8.09869C9.34928 7.94036 9.12915 7.85803 8.90274 7.97836C8.77066 8.04803 8.60714 8.07336 8.4562 8.09869C8.2235 8.13669 7.97821 8.15569 7.74551 8.19369C7.56941 8.21903 7.3996 8.19369 7.24236 8.11136C6.95934 7.96569 6.95306 7.62369 7.21092 7.44003C7.54425 7.20569 7.90903 7.04103 8.26123 6.85103C8.67004 6.63569 9.05368 6.39503 9.32412 6.00869C9.40588 5.89469 9.46249 5.76803 9.52538 5.64769C9.61343 5.48303 9.6889 5.31203 9.78324 5.15369C9.93419 4.91303 10.0914 4.67869 10.2549 4.45069C10.4499 4.17836 10.6889 3.93769 10.9468 3.71603C11.2298 3.46903 11.5505 3.26003 11.8587 3.04469C12.2801 2.75336 12.7518 2.55703 13.2172 2.34803C13.4751 2.23403 13.7392 2.13903 14.0034 2.03769C14.3115 1.91736 14.5191 1.69569 14.6575 1.39803C14.7204 1.26503 14.8147 1.13836 14.8839 1.01169C15.0097 0.77736 15.1732 0.56836 15.3304 0.35936C15.431 0.22636 15.5505 0.11236 15.6952 0.049027C15.9216 -0.045973 16.0914 -0.0143063 16.148 0.24536C16.2109 0.536694 16.2864 0.821694 16.3178 1.11303C16.3556 1.42336 16.538 1.60069 16.777 1.74003C16.865 1.79069 16.9656 1.82236 17.06 1.84769C17.3304 1.92369 17.6009 1.99336 17.865 2.10103C18.2235 2.25303 18.582 2.39236 18.9279 2.58236C19.4059 2.84203 19.8524 3.13969 20.2801 3.47536C20.6512 3.76669 20.9845 4.09603 21.2927 4.45069C21.6952 4.91936 22.0348 5.43869 22.2864 6.01503C22.538 6.58503 22.7015 7.17403 22.7707 7.78836C22.8084 8.15569 22.8273 8.52303 22.8084 8.89036C22.7832 9.35903 22.7015 9.82136 22.582 10.2774C22.4688 10.6954 22.299 11.088 22.1229 11.4744C21.9719 11.7974 21.7644 12.1014 21.5631 12.399C21.3556 12.6967 21.1354 12.9817 20.9027 13.254C20.7203 13.4694 20.5128 13.6594 20.3115 13.8557C20.1166 14.0457 19.9216 14.2357 19.7141 14.4004C19.431 14.6284 19.1229 14.831 18.8398 15.059C18.6952 15.173 18.5568 15.2997 18.4373 15.4454C18.2675 15.648 18.2675 15.8887 18.3744 16.123C18.5568 16.541 18.7832 16.9337 19.0411 17.301C19.2298 17.567 19.4499 17.8204 19.6826 18.0547C19.9782 18.3587 20.3115 18.612 20.6763 18.8274C21.1417 19.106 21.6449 19.2517 22.1732 19.3594C22.7266 19.467 23.2549 19.3847 23.7832 19.239C24.2046 19.125 24.5757 18.916 24.909 18.65C25.387 18.2764 25.777 17.8204 26.0537 17.2757C26.1983 16.9907 26.3178 16.6994 26.4059 16.389C26.5128 16.0154 26.5505 15.6354 26.5505 15.2427C26.5505 14.8627 26.4876 14.5017 26.3996 14.1344C26.2927 13.7037 26.0851 13.3237 25.8398 12.969C25.6637 12.7157 25.4436 12.4877 25.2109 12.2787C24.9971 12.0824 24.7455 11.943 24.5002 11.791C24.3493 11.696 24.1732 11.639 24.0034 11.582C23.8587 11.5314 23.7078 11.487 23.5505 11.4554C23.3933 11.4237 23.3053 11.3287 23.2738 11.183C23.2424 11.0437 23.299 10.936 23.4059 10.8474C23.5883 10.708 23.5946 10.5244 23.5317 10.328C23.5191 10.2964 23.5002 10.2647 23.4939 10.2267C23.4688 10.138 23.4436 10.0494 23.431 9.96069C23.4059 9.75169 23.431 9.56169 23.6009 9.39703C23.6889 9.30836 23.7455 9.17536 23.8021 9.05503C23.8713 8.90303 23.8839 8.73836 23.8336 8.58003C23.8273 8.54836 23.8147 8.52303 23.8084 8.49136C23.7518 8.28869 23.6763 8.09869 23.6386 7.88336C23.5946 7.59836 23.5254 7.31969 23.538 7.02836C23.538 6.97769 23.5191 6.92069 23.5191 6.87003C23.5128 6.78769 23.5128 6.71169 23.5946 6.66103C23.67 6.61669 23.7581 6.62303 23.8398 6.70536C23.9531 6.81303 24.0726 6.92069 24.1606 7.04736C24.3744 7.34503 24.5694 7.65536 24.777 7.96569C24.8336 8.04803 24.9027 8.13036 24.9656 8.20636C24.9845 8.23169 25.0097 8.24436 25.0285 8.26969C25.2424 8.61169 25.582 8.79536 25.8965 9.01069C26.2424 9.25136 26.582 9.49836 26.9216 9.74536C27.3115 10.0304 27.6763 10.3534 28.0097 10.708C28.431 11.1577 28.7958 11.6454 29.0726 12.2027C29.2927 12.646 29.4939 13.0957 29.6575 13.5644C29.7078 13.7164 29.7832 13.862 29.8461 14.014C29.9656 14.2864 30.1732 14.451 30.431 14.5777C30.6637 14.6854 30.8902 14.8057 31.1229 14.926C31.1858 14.9577 31.2424 15.0084 31.2927 15.059C31.3115 15.078 31.3367 15.1034 31.343 15.1287C31.4248 15.382 31.3115 15.591 31.06 15.667C30.8336 15.7304 30.6134 15.8064 30.3807 15.8507C30.1354 15.9014 29.9845 16.0597 29.8964 16.2687C29.7644 16.5917 29.6637 16.9274 29.5505 17.2567C29.4751 17.472 29.3807 17.681 29.3053 17.8964C29.1795 18.2637 28.9845 18.593 28.7958 18.9287C28.5883 19.296 28.3367 19.638 28.0663 19.961C27.4688 20.6704 26.7518 21.2277 25.9342 21.652C25.7895 21.728 25.6386 21.785 25.4876 21.842C25.2675 21.9244 25.0537 22.013 24.8273 22.0764C24.387 22.1967 23.9342 22.26 23.4814 22.298C23.2801 22.3107 23.0726 22.3234 22.8713 22.3234C22.4122 22.3234 21.9656 22.2664 21.5128 22.184C20.9216 22.0827 20.3681 21.8737 19.8336 21.6077C19.5317 21.4557 19.2235 21.291 18.9405 21.1074C18.7015 20.949 18.4876 20.7527 18.2675 20.569C18.0537 20.3854 17.8336 20.208 17.6449 20.0054C17.3996 19.7457 17.1795 19.467 16.9593 19.1884C16.8273 19.0237 16.7203 18.84 16.5883 18.6817C16.4185 18.4727 16.2361 18.2827 15.9593 18.2257C15.7832 18.194 15.626 18.2257 15.4814 18.3144C15.387 18.3714 15.299 18.4284 15.2109 18.4917C14.7518 18.821 14.2927 19.1504 13.8902 19.5494C13.4625 19.9674 13.0977 20.4424 12.8587 20.9997C12.6197 21.557 12.4814 22.1397 12.4751 22.754C12.4688 23.1214 12.4814 23.476 12.582 23.8307C12.6763 24.16 12.8273 24.4704 12.9908 24.7744C13.1292 25.034 13.3241 25.2494 13.5191 25.4584C13.8713 25.8384 14.299 26.1234 14.7832 26.3007C15.431 26.5414 16.1103 26.6364 16.8021 26.497C17.192 26.421 17.5568 26.2754 17.8965 26.06C18.2738 25.8194 18.6009 25.528 18.8965 25.1924C19.1229 24.9327 19.3178 24.6477 19.4876 24.35C19.7015 23.9764 19.8839 23.5774 19.9908 23.153C20.0159 23.0454 20.0474 22.944 20.0851 22.8427C20.1669 22.6084 20.4248 22.5577 20.582 22.7477C20.6889 22.8744 20.7895 23.0137 20.8839 23.153C21.0348 23.3684 21.2046 23.419 21.4436 23.2924C21.5694 23.229 21.6952 23.1657 21.8461 23.1657C22.0097 23.1594 22.1354 23.2164 22.2487 23.324C22.3493 23.419 22.4436 23.5204 22.538 23.6217C22.6323 23.7294 22.7392 23.761 22.8776 23.742C23.1858 23.704 23.4562 23.5457 23.7455 23.4507C23.9405 23.3874 24.1292 23.3114 24.343 23.324C24.3744 23.324 24.4059 23.324 24.431 23.3304C24.6009 23.3684 24.6512 23.495 24.538 23.6217C24.4185 23.7547 24.2801 23.8687 24.1417 23.989C23.9216 24.179 23.6952 24.369 23.4751 24.559C23.4122 24.616 23.343 24.6604 23.2864 24.7237C23.192 24.8187 23.0977 24.9264 23.0034 25.0277C22.7958 25.2494 22.626 25.5027 22.4688 25.775C22.3241 26.022 22.148 26.2564 21.9782 26.4907C21.8021 26.7314 21.626 26.9657 21.4436 27.1937C21.1166 27.5864 20.7329 27.9284 20.3241 28.2387C19.9782 28.4984 19.5946 28.701 19.2172 28.8974C19.1417 28.9354 19.06 28.9607 18.9845 28.986C18.6071 29.1127 18.2235 29.233 17.8461 29.3724C17.538 29.4864 17.2864 29.6637 17.1669 29.993C17.0474 30.316 16.865 30.6074 16.67 30.8924C16.5883 31.019 16.4562 31.1204 16.3241 31.209C16.1795 31.3104 16.0034 31.2534 15.9468 31.0824C15.8965 30.9367 15.865 30.7784 15.8461 30.6264C15.8273 30.411 15.7895 30.2084 15.6889 30.0184C15.5946 29.8347 15.4436 29.708 15.2801 29.594C15.0474 29.4357 14.777 29.3724 14.5065 29.3217C14.2487 29.2774 13.9971 29.2077 13.7518 29.0937C13.5505 28.9987 13.3367 28.929 13.1354 28.834C12.9216 28.7264 12.7078 28.6124 12.5065 28.4857C12.0474 28.207 11.6449 27.8587 11.2487 27.4914C11.0851 27.3394 10.9468 27.1494 10.8021 26.9784C10.6637 26.8137 10.5254 26.649 10.4059 26.4717C10.1983 26.1614 10.0159 25.8384 9.84614 25.5027C9.67632 25.1607 9.55683 24.806 9.44991 24.4387C9.39331 24.2297 9.31783 24.0207 9.2801 23.8117C9.23607 23.5774 9.21092 23.3367 9.19834 23.096C9.17947 22.7984 9.1606 22.5007 9.17318 22.2094C9.19834 21.766 9.20463 21.3164 9.35557 20.8857C9.47507 20.55 9.55054 20.2017 9.72664 19.885C9.91532 19.5304 10.1166 19.182 10.3681 18.859C10.777 18.327 11.2549 17.8647 11.7581 17.4214C11.9531 17.2504 12.1606 17.092 12.3493 16.921C12.6449 16.655 12.9405 16.389 13.2172 16.1104C13.3556 15.971 13.4436 15.8 13.4248 15.591C13.4185 15.534 13.4185 15.4834 13.4248 15.4264C13.4625 15.1414 13.3304 14.9197 13.1606 14.717C12.9593 14.47 12.7392 14.2357 12.5505 13.9824C12.2487 13.5707 11.8839 13.2224 11.5065 12.8994C11.2361 12.6714 10.9405 12.4814 10.6197 12.3167C10.0474 12.0254 9.43733 11.9557 8.81469 11.9937C8.38702 12.019 7.97821 12.1204 7.58827 12.3104C7.13544 12.5257 6.74551 12.8107 6.41217 13.178C6.09771 13.5264 5.85243 13.9254 5.68261 14.375C5.56941 14.6917 5.4562 15.002 5.42475 15.3314C5.38702 15.6417 5.36815 15.952 5.38702 16.2687C5.41217 16.5917 5.42475 16.921 5.50022 17.2377C5.65117 17.8774 5.89645 18.46 6.38073 18.9287C6.54425 19.087 6.72664 19.2074 6.91532 19.3277C7.2801 19.562 7.69519 19.657 8.104 19.771C8.13545 19.7774 8.1606 19.7837 8.19205 19.7964C8.47507 19.8724 8.54425 20.0877 8.36186 20.3157C8.15431 20.5754 8.14802 20.6894 8.30526 20.987C8.4562 21.2657 8.48136 21.5444 8.32412 21.8357C8.26752 21.937 8.21721 22.0384 8.17318 22.146C8.06626 22.3994 8.11658 22.64 8.21092 22.8807C8.26123 23.0074 8.28639 23.1467 8.31784 23.2797C8.3367 23.3494 8.3367 23.4254 8.36815 23.4887C8.50022 23.7927 8.50022 24.1094 8.50651 24.4324C8.50651 24.483 8.48136 24.5717 8.44991 24.5844C8.38702 24.6034 8.29897 24.6034 8.24865 24.5654C8.14173 24.483 8.03482 24.3817 7.96563 24.2677C7.72664 23.8814 7.4562 23.5204 7.14802 23.1974C6.93419 22.9694 6.6889 22.773 6.44991 22.5767C6.17947 22.355 5.89645 22.1524 5.62601 21.937C5.33041 21.7027 5.03482 21.462 4.75809 21.2087C4.50651 20.9807 4.27381 20.7274 4.04111 20.474C3.65746 20.0624 3.35557 19.5937 3.09771 19.0934C3.00966 18.9287 2.9279 18.7577 2.84614 18.593C2.76438 18.4284 2.70148 18.251 2.60714 18.0864C2.47507 17.8457 2.39331 17.586 2.29897 17.3327C2.23607 17.1617 2.1606 16.997 2.06626 16.8387C2.02853 16.769 1.95306 16.712 1.87758 16.6804C1.56312 16.522 1.22978 16.389 0.921608 16.2244C0.619721 16.066 0.317835 15.9014 0.129156 15.591C0.0473949 15.4517 -0.0154987 15.3124 0.00336927 15.1477C0.00965858 15.0527 0.00336927 14.9514 0.00336927 14.8564C0.00965858 14.755 0.0473947 14.7107 0.148024 14.7107C0.223495 14.7107 0.311546 14.7044 0.380728 14.736C0.802112 14.9197 1.24865 14.9134 1.6889 14.9007C1.85872 14.8944 1.99708 14.8057 2.11029 14.6854C2.26123 14.5207 2.34299 14.3244 2.40589 14.1154C2.46878 13.9 2.53167 13.6847 2.62601 13.482C2.80211 13.083 2.99708 12.6967 3.25494 12.3484C3.41846 12.1267 3.56941 11.8924 3.7518 11.6897C3.93419 11.4744 4.15431 11.297 4.34299 11.088C4.51909 10.8917 4.72035 10.7397 4.93419 10.5877C5.12916 10.4484 5.32412 10.309 5.52538 10.176C5.87758 9.94803 6.26752 9.78969 6.65746 9.62503C6.99708 9.48569 7.35557 9.41603 7.71406 9.34636C7.95934 9.29569 8.21092 9.25136 8.4562 9.23236C8.94048 9.18803 9.42475 9.18169 9.90903 9.26403C10.387 9.34636 10.865 9.41603 11.3241 9.58703C11.8336 9.77703 12.3304 9.98603 12.777 10.29C13.0788 10.499 13.387 10.6954 13.67 10.9234C13.909 11.1134 14.1229 11.335 14.3367 11.5504C14.6323 11.848 14.9027 12.171 15.148 12.5194C15.2675 12.6904 15.3933 12.8614 15.5191 13.026C15.8084 13.4124 16.3807 13.4504 16.7141 13.0894C16.9468 12.836 17.2172 12.627 17.4625 12.3864C17.6386 12.2154 17.8084 12.038 17.9719 11.8544C18.1606 11.6517 18.343 11.4427 18.5128 11.2274C18.6637 11.0374 18.7895 10.8347 18.9216 10.6384C18.9908 10.5307 19.0663 10.4294 19.1229 10.3154C19.3744 9.73269 19.5443 9.14369 19.5128 8.51669Z" fill="black"/>
<path d="M76.2613 8.87103C76.0852 8.80137 75.9091 8.6747 75.7267 8.66837C74.5443 8.6177 73.3619 8.5797 72.2361 9.08637C71.4499 9.44103 70.6135 9.56137 69.7644 9.5297C68.2424 9.4727 67.2801 7.73103 68.0411 6.40103C68.5506 5.50803 69.3242 5.03937 70.3619 5.0267C71.7833 5.01403 73.2109 5.09637 74.6198 4.93803C77.0852 4.65937 79.5443 4.90003 82.0034 4.8177C82.777 4.79237 83.5506 4.6467 84.3179 4.65303C85.3242 4.65937 86.3367 4.7227 87.343 4.83037C88.7141 4.97603 90.06 5.2547 91.3619 5.78037C92.1921 6.11603 92.6386 6.95837 91.7581 7.8577C90.9279 8.6937 89.9531 9.04837 88.8147 8.89003C87.9531 8.7697 87.0977 8.5417 86.2361 8.39603C85.343 8.25037 84.4374 8.1427 83.538 8.03503C83.3745 8.01603 83.1606 8.00337 83.0474 8.09203C82.8776 8.2187 82.7015 8.42137 82.6701 8.61137C82.6512 8.72537 82.8902 8.95337 83.0537 8.9977C83.3053 9.0737 83.5883 9.02937 83.8587 9.0547C84.3619 9.10537 84.8713 9.11803 85.3556 9.23837C86.3116 9.4727 86.7141 9.97937 86.8084 10.9484C86.8462 11.322 86.865 11.6957 86.8776 12.0694C86.9279 14.6534 86.9782 17.2374 87.016 19.8214C87.0411 21.316 86.4814 22.6904 85.9908 24.052C85.5883 25.1667 84.2047 25.6417 83.3053 24.964C82.0537 24.014 80.7015 24.223 79.3304 24.3244C78.9594 24.3497 78.5946 24.47 78.2298 24.4574C77.5002 24.432 76.8273 24.5967 76.1669 24.8817C75.7644 25.0527 75.343 25.192 74.9216 25.3124C73.8713 25.6164 73.3242 25.382 72.8965 24.3687C72.3745 23.1337 72.1858 21.8164 72.2172 20.48C72.255 18.884 72.3682 17.2944 72.3933 15.6984C72.4059 14.8877 72.3241 14.0707 72.2424 13.2664C72.104 11.8604 73.0474 10.3214 74.387 9.8527C74.7707 9.7197 75.1606 9.6247 75.5443 9.4917C75.8084 9.3967 76.06 9.2637 76.3179 9.1497C76.2864 9.0547 76.2738 8.9597 76.2613 8.87103ZM79.6764 16.6294C80.3116 16.9904 81.0034 17.2754 81.5506 17.725C82.4625 18.4787 82.1984 19.1754 81.3745 19.701C79.9971 20.575 78.4814 20.442 76.9719 20.0747C76.9405 20.0684 76.9091 20.0494 76.8839 20.0304C76.4499 19.663 75.8902 19.34 75.8839 18.7067C75.8776 18.067 76.3367 17.6807 76.8839 17.4084C77.0663 17.3134 77.2361 17.1867 77.4122 17.0727C77.1669 16.9714 76.9719 17.0094 76.7833 17.022C76.5443 17.0347 76.3116 17.0157 76.0726 17.041C75.4311 17.098 75.0789 17.4907 75.1355 18.1177C75.1984 18.789 75.2927 19.4604 75.4185 20.1254C75.5946 21.0817 75.6512 21.145 76.6072 21.1134C77.7518 21.0817 78.8965 20.9677 80.0411 20.9234C80.6135 20.9044 81.1858 20.974 81.7644 20.9804C82.5757 20.9867 82.7833 20.917 82.9342 20.157C83.1103 19.2704 83.1103 18.3457 83.1732 17.44C83.2109 16.8764 82.8839 16.6357 82.3619 16.6294C81.4436 16.623 80.5443 16.6294 79.6764 16.6294ZM83.1984 12.7407C83.0537 12.633 82.821 12.3227 82.5757 12.3164C82.2235 12.3037 81.9908 12.614 82.0097 13.013C82.0286 13.393 82.2047 13.6717 82.5946 13.7224C82.8965 13.7604 83.2235 13.3107 83.1984 12.7407ZM76.1858 13.07C75.7644 13.0004 75.3682 12.8927 75.3242 13.4437C75.3116 13.602 75.5065 13.9124 75.6386 13.925C76.2109 14.0074 76.2801 13.6274 76.1858 13.07ZM79.4625 12.7407C79.3996 12.6774 79.255 12.3987 79.0726 12.3734C78.7015 12.3227 78.6449 12.671 78.6952 12.937C78.7392 13.165 78.8776 13.5324 79.0223 13.5514C79.4311 13.621 79.4751 13.2727 79.4625 12.7407ZM79.9594 8.60503C79.6323 8.38337 79.3933 8.13003 79.3053 8.17437C79.0789 8.2947 78.9153 8.54803 78.7267 8.74437C78.8965 8.8647 79.0852 9.0927 79.2361 9.0737C79.4436 9.04837 79.626 8.83303 79.9594 8.60503Z" fill="black"/>
<path d="M169.45 18.8838C168.859 18.8015 168.406 18.7382 167.827 18.6558C167.771 19.5108 167.701 20.2772 167.682 21.0435C167.67 21.8605 167.727 22.6775 167.72 23.4945C167.714 23.8998 167.682 24.3115 167.582 24.7042C167.387 25.4388 167.041 25.6922 166.368 25.6922C165.821 25.6922 165.242 25.2932 165.085 24.7295C164.978 24.3432 164.94 23.9252 164.909 23.5198C164.827 22.5065 164.771 21.4868 164.683 20.4735C164.664 20.2898 164.557 20.1125 164.469 19.8718C163.764 20.2835 163.425 20.9105 163.091 21.5185C162.569 22.4748 161.802 23.1652 160.921 23.7542C160.783 23.8492 160.632 23.9695 160.475 23.9822C160.223 24.0075 159.871 24.0455 159.727 23.9062C159.582 23.7668 159.525 23.3678 159.62 23.1715C159.966 22.4368 160.311 21.6832 160.802 21.0498C162.041 19.4602 163.047 17.7312 164.01 15.9768C164.104 15.7995 164.186 15.6095 164.242 15.4132C164.274 15.2928 164.249 15.1535 164.249 14.9318C163.733 14.9318 163.242 14.9318 162.758 14.9318C162.324 14.9318 161.877 14.9698 161.456 14.9065C160.909 14.8178 160.362 14.6152 160.267 13.9692C160.16 13.2408 160.23 12.5188 160.896 12.0375C161.689 11.4675 162.582 11.1888 163.55 11.1762C164.091 11.1698 164.638 11.2015 165.173 11.1698C165.909 11.1255 166.645 11.0432 167.381 10.9735C168.223 10.8912 169.06 10.7962 169.877 11.1508C170.588 11.4612 170.821 11.9172 170.444 12.5948C170.148 13.1205 169.739 13.5892 169.337 14.0452C168.758 14.6975 168.777 15.0078 169.481 15.5018C169.758 15.6982 170.003 15.9325 170.286 16.1162C170.89 16.5152 171.242 17.0598 171.249 17.8198C172.33 18.0985 173.293 17.7945 174.249 17.4652C174.626 17.3322 174.859 16.5532 174.727 16.1352C174.588 15.6918 174.261 15.5145 173.689 15.5778C173.387 15.6095 173.085 15.6665 172.783 15.6728C171.978 15.6855 171.582 15.3815 171.381 14.6342C171.167 13.8298 171.33 13.2282 171.991 12.9115C172.682 12.5822 173.425 12.3225 174.16 12.1262C174.852 11.9425 175.016 11.8602 175.047 11.1382C175.072 10.5618 175.091 9.9665 174.972 9.40917C174.789 8.52884 175.249 7.9905 175.808 7.4775C175.978 7.31917 176.198 7.20517 176.406 7.0975C177.374 6.59083 177.934 6.7935 178.293 7.8195C178.544 8.55417 178.708 9.3205 178.475 10.1058C178.399 10.3655 178.33 10.6378 178.318 10.9038C178.274 11.6828 178.563 11.9678 179.33 11.9235C179.632 11.9045 179.934 11.8475 180.23 11.7905C181.33 11.5752 182.632 12.8165 182.355 14.2542C182.242 14.8432 181.821 15.1408 181.324 15.2612C180.576 15.4385 179.802 15.5082 179.035 15.6095C178.771 15.6475 178.5 15.6602 178.179 15.6855C178.085 15.9832 177.959 16.2618 177.921 16.5532C177.852 17.1928 178.123 17.4905 178.777 17.5158C180.632 17.5918 182.488 17.6425 184.343 17.7312C185.519 17.7818 186.368 18.4278 186.984 19.3778C187.368 19.9668 187.267 20.4482 186.777 20.9358C185.859 21.8542 184.733 21.9238 183.569 21.6325C181.89 21.2082 180.198 20.9042 178.462 21.0182C177.425 21.0878 176.399 21.3538 175.368 21.3918C173.94 21.4425 172.55 21.6768 171.186 22.0758C170.626 22.2405 170.066 22.4305 169.588 21.8922C169.035 21.2652 168.777 20.5622 169.072 19.7325C169.154 19.4982 169.267 19.2892 169.45 18.8838Z" fill="black"/>
<path d="M102.915 11.7969C102.494 11.9236 102.217 12.0123 101.928 12.0883C101.091 12.3226 100.217 11.8983 99.9342 11.1256C99.6009 10.1946 99.9594 9.27628 100.84 8.93428C101.947 8.50994 103.104 8.26928 104.293 8.27561C104.563 8.27561 104.834 8.29461 105.104 8.25661C106.224 8.11094 106.261 8.02228 106.324 6.88861C106.374 5.98294 106.834 5.19761 107.4 4.53261C107.928 3.91828 108.978 4.08294 109.4 4.82394C109.695 5.34328 109.896 5.93861 110.029 6.52128C110.343 7.88928 110.525 8.06661 111.947 7.98428C112.45 7.95261 112.953 7.89561 113.45 7.83228C114.305 7.71828 115.066 8.00328 115.764 8.42761C116.827 9.07361 116.79 10.3086 115.733 10.9546C115.06 11.3663 114.324 11.3916 113.576 11.3473C112.224 11.2649 112.117 11.3029 111.563 12.5379C110.645 14.5773 110.746 14.6659 112.217 16.0656C114.299 18.0289 116.639 19.6376 119.192 20.9169C119.859 21.2526 120.525 21.5883 121.135 22.0126C122.148 22.7156 121.991 23.9886 120.865 24.5206C120.771 24.5649 120.683 24.6219 120.588 24.6409C118.978 24.9259 117.368 24.9449 115.764 24.6029C115.5 24.5459 115.198 24.3179 115.047 24.0836C113.808 22.1583 112.035 20.6953 110.664 18.8903C110.444 18.5989 110.148 18.3519 109.865 18.1176C109.148 17.5286 108.777 17.5603 108.173 18.3139C107.022 19.7516 105.727 21.0373 104.224 22.0949C102.796 23.1019 101.236 23.8113 99.4437 23.8556C99.2109 23.8619 98.9594 23.8556 98.7455 23.7796C98.2047 23.5896 97.6198 23.4186 97.5757 22.6839C97.5317 21.9429 97.6009 21.2399 98.343 20.8283C99.06 20.4356 99.7959 20.1063 100.651 20.1759C101.5 20.2456 102.249 19.9733 102.915 19.4476C103.852 18.7193 104.808 18.0226 105.727 17.2753C106.148 16.9333 106.513 16.4709 106.4 15.8756C106.286 15.2866 105.846 14.9699 105.261 14.8496C104.896 14.7736 104.544 14.6723 104.18 14.5836C103.041 14.3239 102.337 13.6399 102.827 12.4873C102.896 12.3353 102.878 12.1516 102.915 11.7969ZM106.588 11.6006C106.953 12.4239 107.507 12.6013 108.06 12.7026C108.419 12.7723 108.777 12.3986 108.808 12.0186C108.852 11.5626 108.532 11.3853 108.186 11.3916C107.702 11.3979 107.217 11.5183 106.588 11.6006Z" fill="black"/>
<path d="M54.8963 19.606C56.7642 19.454 58.3428 19.2957 59.9215 19.2133C60.5818 19.1753 61.2737 19.2007 61.9215 19.3463C62.9403 19.5807 63.3491 20.4483 62.8648 21.3857C62.1479 22.779 61.0913 23.8493 59.6196 24.451C59.5252 24.489 59.412 24.4763 59.3303 24.527C58.1353 25.2933 56.89 25.1223 55.6259 24.736C54.4372 24.375 53.2296 24.0583 52.041 23.6973C50.8208 23.3237 49.607 22.9183 48.3932 22.5383C47.7831 22.3483 47.173 22.1457 46.5504 21.9873C44.1101 21.3667 42.6447 19.1373 43.1479 16.6737C43.3994 15.4513 43.7831 14.248 44.1101 13.0383C44.1604 12.842 44.2233 12.6457 44.2611 12.443C44.3869 11.8287 44.1416 11.5373 43.5315 11.5753C43.3303 11.588 43.1416 11.6703 42.9403 11.7083C41.9592 11.873 41.1416 11.5247 40.6636 10.7393C40.3177 10.163 40.412 9.10534 40.934 8.45301C41.7076 7.49034 42.6636 6.85701 43.9529 6.81901C45.456 6.77467 46.9089 7.05967 48.3428 7.42701C49.7328 7.78801 50.1542 9.27001 49.2171 10.391C48.4057 11.36 47.6573 12.3607 47.2422 13.5703C47.0095 14.2417 46.8145 14.9257 46.6636 15.6223C46.4435 16.6357 47.4623 17.7567 48.3932 18.1113C49.2737 18.447 50.1856 18.7257 51.1038 18.922C52.4435 19.226 53.8082 19.416 54.8963 19.606Z" fill="black"/>
<path d="M148.324 22.4686C147.557 22.228 146.777 22.0253 146.029 21.734C144.928 21.3096 143.846 20.841 142.771 20.3596C141.23 19.6756 139.865 18.7573 139.142 17.1486C138.991 16.8193 138.928 16.433 138.903 16.0656C138.796 14.3366 138.802 12.595 138.582 10.8786C138.456 9.89063 138.796 9.15596 139.261 8.41496C139.966 7.29396 140.771 7.23063 141.689 8.21229C141.922 8.45929 142.11 8.7443 142.286 9.03563C142.563 9.4853 142.941 9.68163 143.469 9.67529C144.349 9.66263 145.224 9.70063 146.104 9.70696C147.186 9.71329 148.041 10.3403 148.198 11.2523C148.337 12.0376 148.06 12.595 147.286 12.8293C146.519 13.0636 145.714 13.1776 144.922 13.3486C144.167 13.507 143.375 13.5703 142.67 13.849C141.79 14.1973 141.702 14.837 142.375 15.521C142.802 15.9516 143.28 16.3506 143.796 16.661C144.922 17.3386 146.035 17.953 147.469 17.8896C148.764 17.8326 150.079 18.1303 151.387 18.295C151.683 18.333 151.978 18.4533 152.236 18.6053C153.047 19.0613 153.154 19.872 152.5 20.556C151.375 21.7403 150.022 22.4116 148.324 22.4686Z" fill="black"/>
<path d="M134.5 6.90137C135.356 7.0027 136.085 7.3257 136.507 8.11103C136.928 8.9027 136.62 9.61837 136.167 10.296C136.129 10.353 136.085 10.4164 136.029 10.4417C134.293 11.322 134.513 13.032 134.45 14.5267C134.349 16.9967 134.425 19.4667 134.733 21.9304C134.821 22.6207 134.676 23.3554 134.532 24.0457C134.463 24.3814 134.179 24.7044 133.922 24.9514C133.494 25.363 133.041 25.3124 132.576 24.9134C132.123 24.5334 131.959 24.033 131.928 23.4757C131.808 21.1704 131.714 18.865 131.569 16.566C131.5 15.521 131.368 14.476 131.192 13.45C131.047 12.6014 130.978 12.6204 130.135 12.5254C129.708 12.4747 129.268 12.386 128.871 12.215C128.079 11.873 127.576 11.0497 127.664 10.2707C127.764 9.38403 128.06 8.6557 129.066 8.38337C130.299 8.05403 131.5 7.58537 132.727 7.22437C133.305 7.05337 133.915 7.0027 134.5 6.90137Z" fill="black"/>
<path d="M166.588 6.67339C167.513 6.60373 168.299 6.85073 169.022 7.57906C169.645 8.20606 169.507 9.33339 168.764 9.63739C167.305 10.2264 165.783 10.5304 164.224 10.0871C163.507 9.88439 163.167 9.26373 163.217 8.49739C163.268 7.75006 163.909 6.99639 164.651 6.83806C165.01 6.76206 165.381 6.71139 165.752 6.67339C166.022 6.65439 166.293 6.67339 166.588 6.67339Z" fill="black"/>
</svg>
