<svg width="31" height="31" viewBox="0 0 31 31" fill="none" xmlns="http://www.w3.org/2000/svg">
<path d="M9.00952 0.65C7.36825 0.71875 6.25079 0.976562 5.27302 1.35469C4.27778 1.75 3.42222 2.26562 2.56667 3.10781C1.71111 3.95 1.1873 4.79219 0.803175 5.78906C0.419048 6.75156 0.174603 7.85156 0.0873016 9.46719C0.0174603 11.0828 0 11.5984 0 15.7062C0.0174603 19.8141 0.0349206 20.3297 0.104762 21.9453C0.174603 23.5609 0.436508 24.6609 0.820635 25.6063C1.22222 26.6031 1.74603 27.4453 2.60159 28.2875C3.45714 29.1297 4.3127 29.6453 5.3254 30.0234C6.30317 30.4016 7.42064 30.6422 9.06191 30.7281C10.7032 30.7969 11.227 30.8141 15.4 30.8141C19.573 30.7969 20.0968 30.7969 21.7381 30.7109C23.3794 30.6422 24.4968 30.3844 25.4746 30.0062C26.4873 29.6109 27.3429 29.0953 28.1984 28.2531C29.054 27.4109 29.5778 26.5688 29.9619 25.5719C30.346 24.6094 30.5905 23.5094 30.6778 21.8937C30.7476 20.2781 30.7651 19.7625 30.7651 15.6547C30.7476 11.5469 30.7476 11.0312 30.6603 9.41562C30.5905 7.8 30.3286 6.7 29.9444 5.7375C29.5429 4.74063 29.019 3.89844 28.1635 3.05625C27.3079 2.21406 26.4524 1.69844 25.4397 1.32031C24.4619 0.942187 23.3444 0.701562 21.7032 0.615625C20.0444 0.564062 19.5206 0.546875 15.3476 0.546875C11.1746 0.564063 10.6508 0.58125 9.00952 0.65ZM9.18413 27.9953C7.68254 27.9266 6.87937 27.6859 6.3381 27.4797C5.62222 27.2047 5.11587 26.8781 4.5746 26.3453C4.03333 25.8125 3.70159 25.3141 3.42222 24.6094C3.2127 24.0766 2.95079 23.2687 2.88095 21.8078C2.81111 20.2094 2.79365 19.7281 2.77619 15.6891C2.77619 11.65 2.77619 11.1688 2.84603 9.57031C2.91587 8.09219 3.16032 7.30156 3.36984 6.76875C3.64921 6.06406 3.98095 5.56562 4.52222 5.03281C5.06349 4.5 5.56984 4.17344 6.28571 3.89844C6.82698 3.69219 7.64762 3.45156 9.13175 3.36562C10.7556 3.29687 11.2444 3.27969 15.3302 3.2625C19.4333 3.2625 19.9222 3.2625 21.546 3.33125C23.0476 3.4 23.8508 3.64063 24.3921 3.84688C25.1079 4.12188 25.6317 4.44844 26.1556 4.98125C26.6968 5.51406 27.0286 6.0125 27.3079 6.71719C27.5175 7.25 27.7619 8.05781 27.8492 9.51875C27.919 11.1172 27.9365 11.5984 27.954 15.6203C27.9714 19.6594 27.954 20.1406 27.8841 21.7391C27.8143 23.2172 27.5698 24.0078 27.3603 24.5578C27.081 25.2625 26.7492 25.7609 26.2079 26.2938C25.6667 26.8266 25.1603 27.1531 24.4444 27.4281C23.9032 27.6344 23.0825 27.875 21.5984 27.9609C19.9746 28.0297 19.4857 28.0469 15.3825 28.0641C11.2968 28.0813 10.8079 28.0641 9.18413 27.9953ZM21.7206 7.59375C21.7206 8.59063 22.5587 9.39844 23.5714 9.39844C24.5841 9.39844 25.4222 8.57344 25.4048 7.57656C25.4048 6.57969 24.5667 5.77188 23.554 5.77188C22.5413 5.77188 21.7206 6.59687 21.7206 7.59375ZM7.49048 15.6891C7.49048 19.9859 11.0349 23.4406 15.4 23.4406C19.7476 23.4234 23.2746 19.9516 23.2746 15.6547C23.2571 11.375 19.7302 7.88594 15.3651 7.90312C11 7.92031 7.47302 11.4094 7.49048 15.6891ZM10.2492 15.6891C10.2492 12.9047 12.5365 10.6531 15.3651 10.6359C18.1937 10.6359 20.4984 12.8875 20.4984 15.6719C20.4984 18.4563 18.2111 20.725 15.3825 20.725C12.554 20.725 10.2667 18.4734 10.2492 15.6891Z" fill="white" fill-opacity="0.8"/>
</svg>
