<svg width="25" height="24" viewBox="0 0 25 24" fill="none" xmlns="http://www.w3.org/2000/svg">
<path d="M14.5833 0H8.75V5.83333H14.5833V0Z" fill="white" fill-opacity="0.8"/>
<path d="M5.83333 17.5H0V23.3333H5.83333V17.5Z" fill="white" fill-opacity="0.8"/>
<path d="M5.83333 8.75H0V14.5833H5.83333V8.75Z" fill="white" fill-opacity="0.8"/>
<path d="M5.83333 0H0V5.83333H5.83333V0Z" fill="white" fill-opacity="0.8"/>
<path d="M23.3333 0H17.5V5.83333H23.3333V0Z" fill="white" fill-opacity="0.8"/>
<path d="M10.2083 20.2125V23.3333H13.2708L21.9917 14.6271L18.9 11.5354L10.2083 20.2125Z" fill="white" fill-opacity="0.8"/>
<path d="M14.5833 11.7104V8.75H8.75V14.5833H11.7104L14.5833 11.7104Z" fill="white" fill-opacity="0.8"/>
<path d="M24.5729 11.025L22.5167 8.96875C22.225 8.67708 21.7729 8.67708 21.4812 8.96875L19.9354 10.5146L23.0271 13.6062L24.5729 12.0604C24.8646 11.7688 24.8646 11.3167 24.5729 11.025Z" fill="white" fill-opacity="0.8"/>
</svg>
