<svg width="173" height="39" viewBox="0 0 173 39" fill="none" xmlns="http://www.w3.org/2000/svg">
<path d="M19.0006 19.1293L17.2857 0.197208C14.1732 1.27757 11.9353 4.23572 11.9353 7.7169C11.9353 8.55718 12.0725 9.36317 12.3126 10.1263C11.0093 9.19168 9.41446 8.64292 7.69102 8.64292C4.99868 8.64292 2.62359 9.98052 1.18311 12.0212L19.0006 19.1293Z" fill="#00AE4D"/>
<path d="M18.5034 20.8871L0 16.5485C0.0428717 19.841 2.14358 22.8935 5.45327 23.991C6.25069 24.2568 7.06525 24.3768 7.86266 24.394C6.56794 25.3371 5.54759 26.6747 4.99884 28.3124C4.14998 30.8676 4.67301 33.5428 6.15637 35.5492L18.5034 20.8871Z" fill="#00AE4D"/>
<path d="M20.0381 21.7702L10.272 38.0786C13.4273 39.0389 16.9685 37.9671 19.0264 35.1548C19.5237 34.4774 19.8838 33.74 20.141 32.9854C20.6469 34.5031 21.6072 35.8921 23.0049 36.9039C25.1742 38.4902 27.8836 38.8074 30.2502 38.01L20.0381 21.7702Z" fill="#00AE4D"/>
<path d="M20.8872 19.1293L38.3788 11.6782C36.3896 9.04592 32.8913 7.82836 29.5816 8.90015C28.7842 9.15738 28.0553 9.53466 27.4037 10.0062C27.8924 8.48001 27.9267 6.79087 27.3951 5.15317C26.572 2.59802 24.5656 0.745967 22.1819 0L20.8872 19.1293Z" fill="#00AE4D"/>
<path d="M21.4102 20.7499L33.9115 35.069C35.7979 32.3681 35.8665 28.6554 33.8258 25.843C33.3285 25.1657 32.7454 24.5912 32.1023 24.111C33.7057 24.1024 35.3177 23.6051 36.7153 22.5934C38.8932 21.0157 40.0336 18.5377 39.9993 16.0426L21.4102 20.7499Z" fill="#00AE4D"/>
<path d="M59.053 5.771V21.513H61.195V5.771H59.053ZM56.945 11.823V13.642H59.563V11.823H56.945ZM55.534 6.043V20.765H57.625V6.043H55.534ZM48.122 16.107V17.96H49.227C51.25 17.96 52.916 17.909 54.82 17.535L54.65 15.699C52.78 16.039 51.165 16.107 49.227 16.107H48.122ZM48.122 7.59V16.991H50.366V9.409H53.936V7.59H48.122ZM71.7507 9.834V11.653H75.4227V9.834H71.7507ZM74.2327 5.788V17.263H76.4937V5.788H74.2327ZM66.1067 19.439V21.241H76.8507V19.439H66.1067ZM66.1067 16.294V20.51H68.3677V16.294H66.1067ZM66.9567 7.845V8.831C66.9567 10.82 65.8347 12.877 63.2337 13.727L64.3727 15.529C67.3987 14.526 68.7927 11.789 68.7927 8.831V7.845H66.9567ZM67.4327 7.845V8.831C67.4327 11.636 68.7757 14.254 71.6997 15.223L72.8047 13.455C70.3227 12.622 69.2517 10.667 69.2517 8.831V7.845H67.4327ZM63.8457 6.842V8.627H72.3117V6.842H63.8457ZM78.9743 13.166V14.968H93.2203V13.166H78.9743ZM84.9753 10.803V13.863H87.2193V10.803H84.9753ZM80.6913 10.089V11.874H91.6053V10.089H80.6913ZM80.6913 6.451V11.228H82.9353V8.219H91.5203V6.451H80.6913ZM86.0463 15.75C82.6463 15.75 80.5723 16.787 80.5723 18.64C80.5723 20.493 82.6463 21.53 86.0463 21.53C89.4463 21.53 91.5033 20.493 91.5033 18.64C91.5033 16.787 89.4463 15.75 86.0463 15.75ZM86.0463 17.45C88.1543 17.45 89.2253 17.841 89.2253 18.64C89.2253 19.456 88.1543 19.813 86.0463 19.813C83.9383 19.813 82.8673 19.456 82.8673 18.64C82.8673 17.841 83.9383 17.45 86.0463 17.45ZM100.563 13.336V15.529H102.824V13.336H100.563ZM94.596 12.01V13.778H108.825V12.01H94.596ZM96.347 6.23V11.177H107.023V6.23H96.347ZM104.796 7.981V9.443H98.574V7.981H104.796ZM96.228 14.764V16.447H104.881V17.246H96.245V20.204H98.472V18.81H107.108V14.764H96.228ZM96.245 19.711V21.411H107.516V19.711H96.245ZM110.252 17.858V19.694H124.498V17.858H110.252ZM116.219 14.492V18.3H118.48V14.492H116.219ZM111.748 6.774V14.968H122.951V6.774H120.707V9.188H113.992V6.774H111.748ZM113.992 10.956H120.707V13.166H113.992V10.956ZM126.485 7.726V9.528H139.473V7.726H126.485ZM125.89 18.113V19.932H140.136V18.113H125.89ZM131.857 16.039V18.827H134.101V16.039H131.857ZM132.962 10.208C129.681 10.208 127.624 11.347 127.624 13.285C127.624 15.223 129.681 16.362 132.962 16.362C136.243 16.362 138.3 15.223 138.3 13.285C138.3 11.347 136.243 10.208 132.962 10.208ZM132.962 11.959C134.934 11.959 135.988 12.384 135.988 13.285C135.988 14.186 134.934 14.594 132.962 14.594C130.99 14.594 129.936 14.186 129.936 13.285C129.936 12.384 130.99 11.959 132.962 11.959ZM131.857 5.941V8.848H134.101V5.941H131.857ZM147.768 9.358V11.177H150.267V9.358H147.768ZM152.783 5.771V17.552H154.925V5.771H152.783ZM149.638 6.026V17.076H151.763V6.026H149.638ZM144.334 19.439V21.241H155.333V19.439H144.334ZM144.334 16.175V20.578H146.595V16.175H144.334ZM144.283 6.825V8.848C144.283 10.718 143.45 12.758 141.308 13.812L142.532 15.529C145.031 14.356 146.051 11.619 146.051 8.848V6.825H144.283ZM144.742 6.825V8.848C144.742 11.534 145.626 14.05 147.955 15.138L149.196 13.421C147.224 12.469 146.476 10.667 146.476 8.848V6.825H144.742ZM168.116 5.754V21.547H170.36V5.754H168.116ZM165.413 11.296V13.132H168.371V11.296H165.413ZM157.865 16.158V17.994H159.123C161.775 17.994 163.815 17.926 166.093 17.569L165.889 15.767C163.662 16.124 161.724 16.158 159.123 16.158H157.865ZM157.865 7.08V16.736H160.109V8.916H165.158V7.08H157.865ZM159.599 11.466V13.234H164.614V11.466H159.599Z" fill="white"/>
<path d="M48 36H49.88C52.09 36 53.29 34.64 53.29 32.31C53.29 29.98 52.09 28.67 49.83 28.67H48V36ZM48.93 35.24V29.43H49.76C51.48 29.43 52.34 30.45 52.34 32.31C52.34 34.17 51.48 35.24 49.76 35.24H48.93ZM56.0548 36.14C56.7248 36.14 57.3348 35.79 57.8448 35.36H57.8848L57.9648 36H58.7148V32.67C58.7148 31.32 58.1548 30.44 56.8248 30.44C55.9548 30.44 55.1948 30.82 54.6948 31.14L55.0548 31.78C55.4748 31.49 56.0448 31.19 56.6848 31.19C57.5748 31.19 57.7948 31.86 57.7948 32.56C55.4848 32.82 54.4648 33.41 54.4648 34.59C54.4648 35.57 55.1448 36.14 56.0548 36.14ZM56.3048 35.4C55.7748 35.4 55.3548 35.15 55.3548 34.53C55.3548 33.83 55.9648 33.38 57.7948 33.17V34.68C57.2748 35.15 56.8348 35.4 56.3048 35.4ZM62.6295 36.14C63.3695 36.14 63.9395 35.89 64.4195 35.58L64.0895 34.97C63.6895 35.24 63.2595 35.41 62.7395 35.41C61.6995 35.41 60.9995 34.66 60.9295 33.51H64.5895C64.6195 33.37 64.6295 33.18 64.6295 32.99C64.6295 31.43 63.8495 30.44 62.4695 30.44C61.2195 30.44 60.0295 31.53 60.0295 33.3C60.0295 35.08 61.1795 36.14 62.6295 36.14ZM60.9195 32.85C61.0395 31.78 61.7195 31.17 62.4795 31.17C63.3395 31.17 63.8295 31.76 63.8295 32.85H60.9195ZM65.4066 38.43C66.4766 38.43 66.8966 37.73 66.8966 36.63V30.57H65.9766V36.62C65.9766 37.28 65.8466 37.7 65.3066 37.7C65.1166 37.7 64.9266 37.64 64.7966 37.6L64.6166 38.29C64.7966 38.36 65.0766 38.43 65.4066 38.43ZM66.4266 29.45C66.7766 29.45 67.0366 29.22 67.0366 28.84C67.0366 28.49 66.7766 28.26 66.4266 28.26C66.0766 28.26 65.8266 28.49 65.8266 28.84C65.8266 29.22 66.0766 29.45 66.4266 29.45ZM70.9205 36.14C71.6605 36.14 72.2305 35.89 72.7105 35.58L72.3805 34.97C71.9805 35.24 71.5505 35.41 71.0305 35.41C69.9905 35.41 69.2905 34.66 69.2205 33.51H72.8805C72.9105 33.37 72.9205 33.18 72.9205 32.99C72.9205 31.43 72.1405 30.44 70.7605 30.44C69.5105 30.44 68.3205 31.53 68.3205 33.3C68.3205 35.08 69.4705 36.14 70.9205 36.14ZM69.2105 32.85C69.3305 31.78 70.0105 31.17 70.7705 31.17C71.6305 31.17 72.1205 31.76 72.1205 32.85H69.2105ZM76.3777 36.14C77.7077 36.14 78.8877 35.09 78.8877 33.3C78.8877 31.48 77.7077 30.44 76.3777 30.44C75.0377 30.44 73.8577 31.48 73.8577 33.3C73.8577 35.09 75.0377 36.14 76.3777 36.14ZM76.3777 35.38C75.4277 35.38 74.7977 34.54 74.7977 33.3C74.7977 32.04 75.4277 31.2 76.3777 31.2C77.3177 31.2 77.9477 32.04 77.9477 33.3C77.9477 34.54 77.3177 35.38 76.3777 35.38ZM80.3321 36H81.2421V32.06C81.7821 31.52 82.1721 31.23 82.7221 31.23C83.4421 31.23 83.7521 31.66 83.7521 32.68V36H84.6721V32.56C84.6721 31.18 84.1521 30.44 83.0121 30.44C82.2621 30.44 81.7021 30.85 81.1921 31.36H81.1621L81.0721 30.57H80.3321V36ZM88.752 36H89.592V31.95C89.592 31.31 89.522 30.43 89.472 29.78H89.512L90.092 31.45L91.482 35.27H92.102L93.492 31.45L94.072 29.78H94.122C94.072 30.43 94.002 31.31 94.002 31.95V36H94.862V28.67H93.742L92.352 32.6C92.182 33.1 92.022 33.61 91.842 34.13H91.802C91.622 33.61 91.452 33.1 91.272 32.6L89.862 28.67H88.752V36ZM98.9772 36.14C99.7172 36.14 100.287 35.89 100.767 35.58L100.437 34.97C100.037 35.24 99.6072 35.41 99.0872 35.41C98.0472 35.41 97.3472 34.66 97.2772 33.51H100.937C100.967 33.37 100.977 33.18 100.977 32.99C100.977 31.43 100.197 30.44 98.8172 30.44C97.5672 30.44 96.3772 31.53 96.3772 33.3C96.3772 35.08 97.5272 36.14 98.9772 36.14ZM97.2672 32.85C97.3872 31.78 98.0672 31.17 98.8272 31.17C99.6872 31.17 100.177 31.76 100.177 32.85H97.2672ZM103.888 36.14C104.228 36.14 104.588 36.04 104.888 35.93L104.708 35.25C104.538 35.32 104.288 35.4 104.098 35.4C103.468 35.4 103.258 35.01 103.258 34.35V31.31H104.728V30.57H103.258V29.04H102.488L102.388 30.57L101.538 30.63V31.31H102.348V34.33C102.348 35.41 102.728 36.14 103.888 36.14ZM105.957 36H106.867V32.52C107.227 31.59 107.787 31.26 108.237 31.26C108.457 31.26 108.577 31.29 108.767 31.35L108.937 30.55C108.757 30.47 108.597 30.44 108.357 30.44C107.747 30.44 107.187 30.87 106.817 31.56H106.787L106.697 30.57H105.957V36ZM111.807 36.14C113.137 36.14 114.317 35.09 114.317 33.3C114.317 31.48 113.137 30.44 111.807 30.44C110.467 30.44 109.287 31.48 109.287 33.3C109.287 35.09 110.467 36.14 111.807 36.14ZM111.807 35.38C110.857 35.38 110.227 34.54 110.227 33.3C110.227 32.04 110.857 31.2 111.807 31.2C112.747 31.2 113.377 32.04 113.377 33.3C113.377 34.54 112.747 35.38 111.807 35.38ZM115.762 38.29H116.672V36.46L116.652 35.51C117.142 35.91 117.652 36.14 118.142 36.14C119.392 36.14 120.502 35.06 120.502 33.21C120.502 31.53 119.752 30.44 118.342 30.44C117.712 30.44 117.112 30.79 116.622 31.2H116.592L116.502 30.57H115.762V38.29ZM118.002 35.37C117.642 35.37 117.162 35.22 116.672 34.81V31.95C117.202 31.46 117.662 31.2 118.122 31.2C119.152 31.2 119.562 32.01 119.562 33.22C119.562 34.56 118.892 35.37 118.002 35.37ZM124.073 36.14C125.403 36.14 126.583 35.09 126.583 33.3C126.583 31.48 125.403 30.44 124.073 30.44C122.733 30.44 121.553 31.48 121.553 33.3C121.553 35.09 122.733 36.14 124.073 36.14ZM124.073 35.38C123.123 35.38 122.493 34.54 122.493 33.3C122.493 32.04 123.123 31.2 124.073 31.2C125.013 31.2 125.643 32.04 125.643 33.3C125.643 34.54 125.013 35.38 124.073 35.38ZM128.987 36.14C129.237 36.14 129.377 36.1 129.507 36.06L129.387 35.36C129.277 35.38 129.237 35.38 129.197 35.38C129.057 35.38 128.937 35.27 128.937 34.98V28.05H128.027V34.92C128.027 35.7 128.297 36.14 128.987 36.14ZM130.869 36H131.779V30.57H130.869V36ZM131.329 29.45C131.679 29.45 131.939 29.22 131.939 28.84C131.939 28.49 131.679 28.26 131.329 28.26C130.969 28.26 130.719 28.49 130.719 28.84C130.719 29.22 130.969 29.45 131.329 29.45ZM135.323 36.14C135.663 36.14 136.023 36.04 136.323 35.93L136.143 35.25C135.973 35.32 135.723 35.4 135.533 35.4C134.903 35.4 134.693 35.01 134.693 34.35V31.31H136.163V30.57H134.693V29.04H133.923L133.823 30.57L132.973 30.63V31.31H133.783V34.33C133.783 35.41 134.163 36.14 135.323 36.14ZM138.369 36.14C139.039 36.14 139.649 35.79 140.159 35.36H140.199L140.279 36H141.029V32.67C141.029 31.32 140.469 30.44 139.139 30.44C138.269 30.44 137.509 30.82 137.009 31.14L137.369 31.78C137.789 31.49 138.359 31.19 138.999 31.19C139.889 31.19 140.109 31.86 140.109 32.56C137.799 32.82 136.779 33.41 136.779 34.59C136.779 35.57 137.459 36.14 138.369 36.14ZM138.619 35.4C138.089 35.4 137.669 35.15 137.669 34.53C137.669 33.83 138.279 33.38 140.109 33.17V34.68C139.589 35.15 139.149 35.4 138.619 35.4ZM142.754 36H143.664V32.06C144.204 31.52 144.594 31.23 145.144 31.23C145.864 31.23 146.174 31.66 146.174 32.68V36H147.094V32.56C147.094 31.18 146.574 30.44 145.434 30.44C144.684 30.44 144.124 30.85 143.614 31.36H143.584L143.494 30.57H142.754V36ZM153.944 36.14C154.894 36.14 155.604 35.76 156.184 35.08L155.684 34.5C155.214 35.02 154.674 35.32 153.984 35.32C152.584 35.32 151.704 34.17 151.704 32.32C151.704 30.49 152.624 29.35 154.014 29.35C154.634 29.35 155.124 29.63 155.504 30.04L156.014 29.44C155.584 28.97 154.894 28.54 154.004 28.54C152.144 28.54 150.754 29.98 150.754 32.34C150.754 34.72 152.114 36.14 153.944 36.14ZM157.471 36H158.381V30.57H157.471V36ZM157.931 29.45C158.281 29.45 158.541 29.22 158.541 28.84C158.541 28.49 158.281 28.26 157.931 28.26C157.571 28.26 157.321 28.49 157.321 28.84C157.321 29.22 157.571 29.45 157.931 29.45ZM161.925 36.14C162.265 36.14 162.625 36.04 162.925 35.93L162.745 35.25C162.575 35.32 162.325 35.4 162.135 35.4C161.505 35.4 161.295 35.01 161.295 34.35V31.31H162.765V30.57H161.295V29.04H160.525L160.425 30.57L159.575 30.63V31.31H160.385V34.33C160.385 35.41 160.765 36.14 161.925 36.14ZM164.074 38.35C165.164 38.35 165.724 37.53 166.104 36.46L168.154 30.57H167.264L166.284 33.59C166.144 34.08 165.984 34.62 165.834 35.12H165.784C165.604 34.62 165.424 34.07 165.254 33.59L164.144 30.57H163.204L165.384 36.01L165.264 36.42C165.034 37.09 164.644 37.59 164.034 37.59C163.884 37.59 163.724 37.55 163.624 37.51L163.444 38.24C163.614 38.31 163.824 38.35 164.074 38.35Z" fill="white"/>
</svg>
