<svg width="120" height="30" viewBox="0 0 120 30" fill="none" xmlns="http://www.w3.org/2000/svg">
<path d="M103.509 29.6032C103.205 29.664 102.901 29.7755 102.597 29.7755C101.878 29.7653 101.169 29.6843 100.449 29.664C99.4768 29.6336 98.4941 28.7016 98.5144 27.7493C98.5346 27.0097 98.6157 26.2803 98.6359 25.5407C98.6562 24.7201 98.4333 24.3858 97.6228 24.325C97.015 24.2845 96.3666 24.3959 95.7689 24.5378C94.7963 24.7809 94.9888 25.6623 95.2927 26.5234C95.6777 27.6176 96.6807 28.114 97.4709 28.8232C97.633 28.9751 97.7343 29.1879 97.866 29.3804C97.6532 29.5222 97.4405 29.7755 97.2277 29.7755C96.2146 29.7755 95.1914 29.7856 94.1986 29.6235C93.7731 29.5526 93.4084 29.0764 93.0234 28.7725C92.2231 28.1039 91.4835 27.3339 90.6021 26.797C90.207 26.5538 89.508 26.6855 88.9812 26.7868C88.5151 26.878 88.2517 27.2731 88.2923 27.7797C88.3328 28.2558 88.3632 28.732 89.0116 28.8333C89.1737 28.8637 89.2851 29.1473 89.4269 29.3094C89.2344 29.3905 89.0521 29.5019 88.8596 29.5424C88.5962 29.6032 88.3227 29.6438 88.0593 29.6438C87.421 29.6438 86.7828 29.6235 86.1445 29.6134C86.0027 29.6134 85.871 29.583 85.7291 29.6032C84.9997 29.664 84.6553 29.3398 84.7262 28.7725C84.8275 27.9722 84.9592 27.1718 85.1517 26.3816C85.3442 25.6015 85.7697 24.8417 85.8102 24.0616C85.8608 23.3018 85.6076 22.5015 85.405 21.7416C85.1719 20.8805 84.7464 20.07 84.5641 19.2089C84.2906 17.9628 84.2298 16.7066 85.101 15.5922C85.4961 15.0856 85.719 14.4474 86.1445 13.9814C87.0056 13.0493 87.7249 12.0464 89.0825 11.5601C90.1158 11.1954 91.1391 11.1042 92.1623 10.8914C92.2231 10.8813 92.294 10.8712 92.3548 10.8914C93.4286 11.3068 94.5532 11.3575 95.6878 11.4486C96.2248 11.4892 96.7617 11.6107 97.3088 11.6411C98.2813 11.7019 99.2539 11.8032 100.216 11.7627C101.594 11.7019 102.982 11.5803 104.35 11.3878C105.667 11.1954 106.933 11.2865 108.22 11.5702C109.192 11.7829 110.205 12.0565 111.178 11.9957C112.292 11.9248 113.316 12.0464 114.248 12.5732C116.122 13.6369 118.006 14.6703 119.688 16.0379C120.124 16.3925 120.124 16.97 119.556 17.2638C118.756 17.6893 117.895 17.9932 117.034 18.287C115.777 18.7226 114.45 18.9759 113.255 19.5331C111.968 20.1308 110.813 21.0325 109.567 21.7315C108.909 22.1064 108.301 22.4812 107.896 23.1498C107.582 23.6665 107.5 24.1021 107.815 24.6593C108.129 25.2165 108.412 25.8244 108.564 26.4424C108.787 27.3339 109.415 27.7898 110.135 28.2153C110.479 28.4179 110.834 28.58 111.168 28.8029C111.33 28.9143 111.522 29.117 111.512 29.2588C111.502 29.4107 111.279 29.6539 111.117 29.6742C110.601 29.7552 110.084 29.7552 109.557 29.7653C109.304 29.7653 109.051 29.664 108.807 29.6843C107.602 29.816 106.781 29.2385 105.961 28.428C105.241 27.7088 104.35 27.1718 103.509 26.5944C103.306 26.4525 102.982 26.3715 102.759 26.4221C102.324 26.5234 101.746 26.5133 101.695 27.1819C101.645 27.8405 102.04 28.3875 102.678 28.6813C103.002 28.8333 103.266 29.1271 103.56 29.35C103.549 29.4209 103.529 29.5121 103.509 29.6032Z" fill="#1D1D1D"/>
<path d="M6.02925 3.74914C6.85998 3.29325 7.57928 3.06023 7.89334 2.33081C8.38975 1.16575 9.39271 0.709862 10.5071 0.426196C10.8313 0.345149 11.2061 0.517374 11.5607 0.527505C13.1918 0.57816 14.833 0.801041 16.0893 1.85466C17.2442 2.82722 18.3991 3.83018 19.0373 5.32956C19.6553 6.76815 19.939 8.17635 19.8174 9.74664C19.706 11.1548 19.3919 12.4313 18.7436 13.6876C18.2471 14.65 18.2066 15.6428 18.9158 16.6863C19.4223 17.436 19.5236 18.4795 19.7769 19.3913C20.1821 20.9109 19.787 22.4002 19.5135 23.8894C19.4932 23.9907 19.4426 24.092 19.3919 24.1731C18.8347 25.095 18.389 26.1283 17.6697 26.9084C16.8693 27.7797 15.8765 28.499 14.6912 28.9042C13.2425 29.4006 11.7633 29.6235 10.264 29.6539C7.38679 29.7046 4.51974 29.6742 1.64256 29.664C1.41968 29.664 1.18667 29.6134 0.963788 29.583C0.315409 29.4817 0.0823978 29.1372 0.0823978 28.4483C0.10266 19.6952 0.10266 10.9421 0.092529 2.19911C0.092529 1.84452 0.0418742 1.48994 0.00135055 1.13536C-0.0290422 0.67947 0.457242 0.172923 1.08536 0.152661C1.86544 0.1324 2.64552 0.243839 3.4256 0.243839C3.86123 0.243839 4.30699 0.193185 4.73249 0.112138C5.63414 -0.0600878 6.13056 0.47685 6.01912 1.39876C5.92794 2.11806 6.01912 2.84749 6.02925 3.74914ZM9.37245 17.4563C9.37245 17.4765 9.37245 17.4968 9.37245 17.5171C8.77473 17.5171 8.177 17.5171 7.57928 17.5171C6.55606 17.5171 6.15082 17.821 6.00899 18.8037C5.9482 19.2596 6.02925 19.7357 6.04951 20.1916C6.06977 20.5259 6.11029 20.8603 6.10016 21.1946C6.09003 21.5897 5.97859 21.9848 5.99885 22.3799C6.03938 23.5247 6.53579 24.1731 7.4881 24.1731C9.04826 24.1731 10.6287 24.2136 12.1483 23.9603C12.8372 23.8387 13.6274 23.16 13.982 22.5217C14.3366 21.8835 14.2859 20.9717 14.2859 20.1815C14.2859 18.9253 13.2526 17.7906 12.0268 17.6386C11.1454 17.5474 10.2538 17.5171 9.37245 17.4563ZM9.11918 6.03872C9.11918 6.06912 9.10905 6.10964 9.10905 6.14003C8.53158 6.14003 7.96425 6.14003 7.38679 6.14003C6.59658 6.15017 6.12043 6.60606 6.12043 7.38614C6.1103 8.44988 6.12043 9.52376 6.12043 10.5875C6.12043 11.5803 6.48514 11.9248 7.50836 11.8944C8.75447 11.8539 10.0107 11.7931 11.2568 11.7728C12.7359 11.7526 13.7794 10.9725 14.134 9.56429C14.519 8.06491 13.749 6.69724 12.2496 6.40344C11.2163 6.20082 10.1627 6.15016 9.11918 6.03872Z" fill="#1D1D1D"/>
<path d="M61.9623 15.5314C61.9623 11.4182 61.9623 7.30509 61.9623 3.20207C61.9623 2.45238 61.9623 1.70269 61.9623 0.953001C61.9623 0.405931 62.4688 -0.0195672 63.0058 0.000694598C64.2113 0.0513492 65.4169 0.102004 66.6225 0.122266C67.6052 0.142527 67.98 0.638943 67.7572 1.59125C67.666 1.99649 67.5951 2.42198 67.6052 2.83735C67.6153 3.08049 67.7572 3.4756 67.9193 3.51612C68.1421 3.57691 68.5069 3.45534 68.6993 3.28311C69.2768 2.76644 69.8137 2.20923 70.3507 1.65203C71.384 0.578157 72.6808 0.436324 74.0586 0.557895C74.5348 0.598419 75.0616 0.547764 75.4972 0.71999C77.1283 1.33798 78.7492 2.11806 79.7927 3.52625C80.6336 4.65079 81.3225 5.90702 81.5453 7.39626C81.8797 9.58454 81.5757 11.6006 80.512 13.5356C79.9852 14.4879 79.3571 15.3186 78.5061 15.9974C77.9793 16.4128 77.9793 16.8788 78.4048 17.5373C79.4381 19.1177 80.1169 20.8299 80.2182 22.7243C80.3296 24.8822 80.9983 26.7868 82.3862 28.4584C82.5686 28.6813 82.7003 29.2284 82.5787 29.35C82.3254 29.5931 81.8898 29.7552 81.5352 29.7653C80.4512 29.7856 79.3773 29.6843 78.2933 29.6742C77.4626 29.664 76.7636 29.4918 76.3887 28.6408C75.9632 27.6986 75.3554 26.8071 75.092 25.8244C74.8387 24.8822 74.9603 23.859 74.8488 22.8763C74.6665 21.2655 74.0079 19.8978 72.9037 18.672C71.688 17.3144 70.1582 17.3854 68.6082 17.436C68.3346 17.4461 67.899 17.821 67.8483 18.0844C67.6761 18.9455 67.6052 19.8269 67.5849 20.6982C67.5647 21.4985 67.6862 22.2988 67.6964 23.0992C67.7166 24.7404 67.7065 26.3816 67.6964 28.0228C67.6964 28.3369 67.6052 28.6408 67.5748 28.9549C67.5343 29.4715 67.1797 29.6438 66.7542 29.6539C65.4777 29.6843 64.2012 29.6742 62.9247 29.6539C62.2662 29.6438 61.9521 29.2183 61.9521 28.3875C61.9521 26.1891 61.9521 24.0008 61.9521 21.8024C61.9623 19.7053 61.9623 17.6184 61.9623 15.5314ZM70.2696 6.52501C69.7631 6.52501 69.2363 6.46422 68.7399 6.54527C68.4157 6.60605 67.9699 6.8188 67.8585 7.08221C67.6559 7.5381 67.6255 8.08517 67.5951 8.60184C67.5545 9.30088 67.6255 10.01 67.5748 10.7091C67.5343 11.2663 67.899 11.8843 68.4258 11.8843C70.1683 11.8944 71.921 11.9248 73.6635 11.8741C75.0109 11.8336 75.4972 11.4385 75.872 10.1417C75.9835 9.74664 76.0037 9.32114 76.0037 8.90577C76.024 7.64954 74.8691 6.51487 73.6027 6.51487C72.4984 6.52501 71.384 6.52501 70.2696 6.52501Z" fill="#1D1D1D"/>
<path d="M40.1095 23.5855C40.1095 21.8835 40.1095 20.1815 40.1095 18.4795C40.1095 12.6846 40.1095 6.88972 40.1095 1.09483C40.1095 0.405929 40.3628 0.142525 41.0517 0.142525C42.1559 0.132394 43.2703 0.142525 44.3746 0.142525C44.6076 0.142525 44.8609 0.162787 45.0635 0.0918705C45.6005 -0.110748 46.2387 0.497107 46.2387 1.11509C46.2387 4.13411 46.2387 7.16325 46.2387 10.1823C46.2387 10.4051 46.1273 10.6382 46.1678 10.8408C46.3603 11.8539 46.9175 12.1071 48.1737 11.9045C48.7005 11.8133 49.2476 11.8944 49.7845 11.8843C51.0306 11.8539 52.2767 11.864 53.5127 11.7424C54.0902 11.6816 54.3232 11.1954 54.2117 10.5672C54.1509 10.2532 54.2827 9.90873 54.2827 9.58454C54.2928 6.85932 54.2827 4.13411 54.2827 1.40889C54.2827 0.395798 54.8297 0.0209538 55.8529 0.122263C56.8762 0.213441 57.9095 0.142525 58.9429 0.152656C60.0471 0.152656 60.2903 0.446452 60.1788 1.52033C60.1383 1.9357 60.2599 2.3612 60.2599 2.77656C60.2599 3.25272 60.1687 3.739 60.1687 4.21515C60.1586 11.2156 60.1687 18.2262 60.1687 25.2267C60.1687 26.3816 60.1788 27.5365 60.1687 28.6915C60.1586 29.5019 59.6419 29.816 58.8416 29.7248C57.869 29.6235 56.8863 29.6742 55.9137 29.6742C54.465 29.664 54.1915 29.431 54.1712 27.9722C54.1611 27.344 54.2624 26.7159 54.2827 26.0878C54.3029 25.409 54.2928 24.7201 54.2928 24.0312C54.2928 22.4305 54.2928 20.84 54.2928 19.2393C54.2928 17.5576 53.8369 17.588 52.5097 17.4461C51.3649 17.3144 50.1796 17.5171 49.0146 17.5272C48.427 17.5373 47.8394 17.4664 47.2518 17.4056C46.725 17.3448 46.4413 17.6589 46.3096 18.0743C46.1779 18.4896 46.1171 18.9354 46.1273 19.371C46.1475 20.7488 46.2286 22.1266 46.2387 23.4943C46.2387 24.7404 46.1577 25.9865 46.1273 27.2326C46.1171 27.7695 46.188 28.3166 46.107 28.8333C45.9753 29.6742 45.7423 29.7349 44.8812 29.6944C43.7262 29.6336 42.5713 29.6438 41.4164 29.6843C40.302 29.7248 40.0588 29.5121 40.0994 28.3369C40.1399 26.7362 40.1095 25.1659 40.1095 23.5855Z" fill="#1D1D1D"/>
<path d="M21.5802 14.7007C21.5802 10.1417 21.5802 5.58283 21.5802 1.03405C21.5802 0.223574 22.0361 0.00069327 22.8364 0.102002C23.8191 0.223573 24.8423 0.193181 25.8352 0.102002C26.8584 0.0108242 27.3447 0.50724 27.1826 1.5102C27.0914 2.08766 27.1927 2.70565 27.2636 3.30337C27.2839 3.45534 27.5473 3.69848 27.6689 3.68835C27.912 3.65796 28.1855 3.51612 28.3476 3.33377C29.1277 2.44225 29.8369 1.48994 30.6575 0.62881C30.9209 0.345145 31.4274 0.162788 31.8327 0.152657C33.7272 0.102003 35.6216 0.122265 37.5161 0.132395C38.2861 0.132395 38.5393 0.557894 38.4988 1.34811C38.4583 2.33081 38.5596 3.32363 38.5697 4.31646C38.5697 4.73183 38.5393 5.15733 38.438 5.56257C38.3165 6.05898 37.891 6.14003 37.4351 6.1299C34.5174 6.1299 31.5997 6.14003 28.682 6.11977C27.5676 6.11977 27.3447 6.35278 27.2535 7.25443C27.1319 8.41949 27.1522 9.60481 27.2535 10.7699C27.3244 11.6209 27.7398 11.8741 28.6313 11.8741C30.931 11.8741 33.2307 11.8741 35.5305 11.8741C36.4119 11.8741 36.6449 12.1274 36.6651 12.9885C36.6955 14.0827 36.7462 15.1869 36.7867 16.2811C36.8171 17.0612 36.1383 17.6082 35.3785 17.4259C35.1961 17.3854 35.0036 17.3651 34.8112 17.3651C33.5144 17.4056 32.2278 17.4563 30.931 17.4867C30.1611 17.5069 29.3911 17.4563 28.6212 17.4968C27.598 17.5576 27.2028 18.0033 27.2028 19.0063C27.2028 20.1308 27.1927 21.2655 27.213 22.39C27.2231 22.8054 27.2636 23.2309 27.3548 23.6361C27.4764 24.1528 27.8816 24.2642 28.378 24.2642C31.2552 24.2541 34.1223 24.2642 36.9994 24.2541C38.2759 24.2541 38.6103 24.629 38.5799 25.8548C38.5596 26.7058 38.5799 27.5568 38.5697 28.4078C38.5596 29.2993 38.2253 29.6235 37.3439 29.6235C32.4203 29.6235 27.4966 29.6235 22.5831 29.6235C21.8233 29.6235 21.5802 29.3804 21.5802 28.6003C21.5701 23.9907 21.5802 19.3406 21.5802 14.7007Z" fill="#1D1D1D"/>
</svg>
