<svg width="120" height="30" viewBox="0 0 120 30" fill="none" xmlns="http://www.w3.org/2000/svg">
<path d="M103.509 29.6032C103.205 29.664 102.901 29.7755 102.597 29.7755C101.878 29.7653 101.169 29.6843 100.45 29.664C99.477 29.6336 98.4943 28.7016 98.5146 27.7493C98.5349 27.0097 98.6159 26.2803 98.6362 25.5407C98.6564 24.7201 98.4336 24.3858 97.6231 24.325C97.0152 24.2845 96.3668 24.3959 95.7691 24.5378C94.7966 24.7809 94.989 25.6623 95.293 26.5234C95.678 27.6176 96.6809 28.114 97.4711 28.8232C97.6332 28.9751 97.7345 29.1879 97.8662 29.3804C97.6535 29.5222 97.4407 29.7755 97.228 29.7755C96.2149 29.7755 95.1917 29.7856 94.1988 29.6235C93.7733 29.5526 93.4086 29.0764 93.0236 28.7725C92.2233 28.1039 91.4837 27.3339 90.6024 26.797C90.2072 26.5538 89.5082 26.6855 88.9814 26.7868C88.5154 26.878 88.252 27.2731 88.2925 27.7797C88.333 28.2558 88.3634 28.732 89.0118 28.8333C89.1739 28.8637 89.2853 29.1473 89.4272 29.3094C89.2347 29.3905 89.0523 29.5019 88.8598 29.5424C88.5964 29.6032 88.3229 29.6438 88.0595 29.6438C87.4213 29.6438 86.783 29.6235 86.1447 29.6134C86.0029 29.6134 85.8712 29.583 85.7294 29.6032C85 29.664 84.6555 29.3398 84.7264 28.7725C84.8277 27.9722 84.9594 27.1718 85.1519 26.3816C85.3444 25.6015 85.7699 24.8417 85.8104 24.0616C85.8611 23.3018 85.6078 22.5015 85.4052 21.7416C85.1722 20.8805 84.7467 20.07 84.5643 19.2089C84.2908 17.9628 84.23 16.7066 85.1013 15.5922C85.4964 15.0856 85.7193 14.4474 86.1447 13.9814C87.0059 13.0493 87.7252 12.0464 89.0827 11.5601C90.1161 11.1954 91.1393 11.1042 92.1625 10.8914C92.2233 10.8813 92.2942 10.8712 92.355 10.8914C93.4289 11.3068 94.5534 11.3575 95.6881 11.4486C96.225 11.4892 96.762 11.6107 97.309 11.6411C98.2816 11.7019 99.2542 11.8032 100.217 11.7627C101.594 11.7019 102.982 11.5803 104.35 11.3878C105.667 11.1954 106.933 11.2865 108.22 11.5702C109.193 11.7829 110.206 12.0565 111.178 11.9957C112.293 11.9248 113.316 12.0464 114.248 12.5732C116.122 13.6369 118.006 14.6703 119.688 16.0379C120.124 16.3925 120.124 16.97 119.557 17.2638C118.756 17.6893 117.895 17.9932 117.034 18.287C115.778 18.7226 114.451 18.9759 113.255 19.5331C111.968 20.1308 110.814 21.0325 109.567 21.7315C108.909 22.1064 108.301 22.4812 107.896 23.1498C107.582 23.6665 107.501 24.1021 107.815 24.6593C108.129 25.2165 108.413 25.8244 108.564 26.4424C108.787 27.3339 109.415 27.7898 110.135 28.2153C110.479 28.4179 110.834 28.58 111.168 28.8029C111.33 28.9143 111.523 29.117 111.513 29.2588C111.502 29.4107 111.28 29.6539 111.117 29.6742C110.601 29.7552 110.084 29.7552 109.557 29.7653C109.304 29.7653 109.051 29.664 108.808 29.6843C107.602 29.816 106.781 29.2385 105.961 28.428C105.242 27.7088 104.35 27.1718 103.509 26.5944C103.307 26.4525 102.982 26.3715 102.759 26.4221C102.324 26.5234 101.746 26.5133 101.696 27.1819C101.645 27.8405 102.04 28.3875 102.678 28.6813C103.003 28.8333 103.266 29.1271 103.56 29.35C103.55 29.4209 103.529 29.5121 103.509 29.6032Z" fill="white"/>
<path d="M6.02925 3.74914C6.85998 3.29325 7.57928 3.06023 7.89334 2.33081C8.38975 1.16575 9.39271 0.709862 10.5071 0.426196C10.8313 0.345149 11.2061 0.517374 11.5607 0.527505C13.1918 0.57816 14.833 0.801041 16.0893 1.85466C17.2442 2.82722 18.3991 3.83018 19.0373 5.32956C19.6553 6.76815 19.939 8.17635 19.8174 9.74664C19.706 11.1548 19.3919 12.4313 18.7436 13.6876C18.2471 14.65 18.2066 15.6428 18.9158 16.6863C19.4223 17.436 19.5236 18.4795 19.7769 19.3913C20.1821 20.9109 19.787 22.4002 19.5135 23.8894C19.4932 23.9907 19.4426 24.092 19.3919 24.1731C18.8347 25.095 18.389 26.1283 17.6697 26.9084C16.8693 27.7797 15.8765 28.499 14.6912 28.9042C13.2425 29.4006 11.7633 29.6235 10.264 29.6539C7.38679 29.7046 4.51974 29.6742 1.64256 29.664C1.41968 29.664 1.18667 29.6134 0.963788 29.583C0.315409 29.4817 0.0823978 29.1372 0.0823978 28.4483C0.10266 19.6952 0.10266 10.9421 0.092529 2.19911C0.092529 1.84452 0.0418742 1.48994 0.00135055 1.13536C-0.0290422 0.67947 0.457242 0.172923 1.08536 0.152661C1.86544 0.1324 2.64552 0.243839 3.4256 0.243839C3.86123 0.243839 4.30699 0.193185 4.73249 0.112138C5.63414 -0.0600878 6.13056 0.47685 6.01912 1.39876C5.92794 2.11806 6.01912 2.84749 6.02925 3.74914ZM9.37245 17.4563C9.37245 17.4765 9.37245 17.4968 9.37245 17.5171C8.77473 17.5171 8.177 17.5171 7.57928 17.5171C6.55606 17.5171 6.15082 17.821 6.00899 18.8037C5.9482 19.2596 6.02925 19.7357 6.04951 20.1916C6.06977 20.5259 6.11029 20.8603 6.10016 21.1946C6.09003 21.5897 5.97859 21.9848 5.99885 22.3799C6.03938 23.5247 6.53579 24.1731 7.4881 24.1731C9.04826 24.1731 10.6287 24.2136 12.1483 23.9603C12.8372 23.8387 13.6274 23.16 13.982 22.5217C14.3366 21.8835 14.2859 20.9717 14.2859 20.1815C14.2859 18.9253 13.2526 17.7906 12.0268 17.6386C11.1454 17.5474 10.2538 17.5171 9.37245 17.4563ZM9.11918 6.03872C9.11918 6.06912 9.10905 6.10964 9.10905 6.14003C8.53158 6.14003 7.96425 6.14003 7.38679 6.14003C6.59658 6.15017 6.12043 6.60606 6.12043 7.38614C6.1103 8.44988 6.12043 9.52376 6.12043 10.5875C6.12043 11.5803 6.48514 11.9248 7.50836 11.8944C8.75447 11.8539 10.0107 11.7931 11.2568 11.7728C12.7359 11.7526 13.7794 10.9725 14.134 9.56429C14.519 8.06491 13.749 6.69724 12.2496 6.40344C11.2163 6.20082 10.1627 6.15016 9.11918 6.03872Z" fill="white"/>
<path d="M61.962 15.5314C61.962 11.4182 61.962 7.30509 61.962 3.20207C61.962 2.45238 61.962 1.70269 61.962 0.953001C61.962 0.405931 62.4686 -0.0195672 63.0055 0.000694598C64.2111 0.0513492 65.4167 0.102004 66.6223 0.122266C67.605 0.142527 67.9798 0.638943 67.7569 1.59125C67.6657 1.99649 67.5948 2.42198 67.605 2.83735C67.6151 3.08049 67.7569 3.4756 67.919 3.51612C68.1419 3.57691 68.5066 3.45534 68.6991 3.28311C69.2766 2.76644 69.8135 2.20923 70.3504 1.65203C71.3838 0.578157 72.6806 0.436324 74.0584 0.557895C74.5345 0.598419 75.0613 0.547764 75.4969 0.71999C77.128 1.33798 78.749 2.11806 79.7925 3.52625C80.6333 4.65079 81.3222 5.90702 81.5451 7.39626C81.8794 9.58454 81.5755 11.6006 80.5117 13.5356C79.9849 14.4879 79.3568 15.3186 78.5058 15.9974C77.979 16.4128 77.979 16.8788 78.4045 17.5373C79.4379 19.1177 80.1166 20.8299 80.2179 22.7243C80.3294 24.8822 80.998 26.7868 82.386 28.4584C82.5683 28.6813 82.7 29.2284 82.5785 29.35C82.3252 29.5931 81.8896 29.7552 81.535 29.7653C80.451 29.7856 79.3771 29.6843 78.2931 29.6742C77.4623 29.664 76.7633 29.4918 76.3885 28.6408C75.963 27.6986 75.3551 26.8071 75.0917 25.8244C74.8384 24.8822 74.96 23.859 74.8486 22.8763C74.6662 21.2655 74.0077 19.8978 72.9034 18.672C71.6877 17.3144 70.1579 17.3854 68.6079 17.436C68.3344 17.4461 67.8988 17.821 67.8481 18.0844C67.6759 18.9455 67.605 19.8269 67.5847 20.6982C67.5644 21.4985 67.686 22.2988 67.6961 23.0992C67.7164 24.7404 67.7063 26.3816 67.6961 28.0228C67.6961 28.3369 67.605 28.6408 67.5746 28.9549C67.534 29.4715 67.1795 29.6438 66.754 29.6539C65.4775 29.6843 64.201 29.6742 62.9245 29.6539C62.266 29.6438 61.9519 29.2183 61.9519 28.3875C61.9519 26.1891 61.9519 24.0008 61.9519 21.8024C61.962 19.7053 61.962 17.6184 61.962 15.5314ZM70.2694 6.52501C69.7628 6.52501 69.236 6.46422 68.7396 6.54527C68.4154 6.60605 67.9697 6.8188 67.8582 7.08221C67.6556 7.5381 67.6252 8.08517 67.5948 8.60184C67.5543 9.30088 67.6252 10.01 67.5746 10.7091C67.534 11.2663 67.8988 11.8843 68.4256 11.8843C70.1681 11.8944 71.9207 11.9248 73.6632 11.8741C75.0107 11.8336 75.4969 11.4385 75.8718 10.1417C75.9832 9.74664 76.0035 9.32114 76.0035 8.90577C76.0238 7.64954 74.8688 6.51487 73.6025 6.51487C72.4982 6.52501 71.3838 6.52501 70.2694 6.52501Z" fill="white"/>
<path d="M40.1097 23.5855C40.1097 21.8835 40.1097 20.1815 40.1097 18.4795C40.1097 12.6846 40.1097 6.88972 40.1097 1.09483C40.1097 0.405929 40.363 0.142525 41.0519 0.142525C42.1562 0.132394 43.2706 0.142525 44.3749 0.142525C44.6079 0.142525 44.8611 0.162787 45.0638 0.0918705C45.6007 -0.110748 46.2389 0.497107 46.2389 1.11509C46.2389 4.13411 46.2389 7.16325 46.2389 10.1823C46.2389 10.4051 46.1275 10.6382 46.168 10.8408C46.3605 11.8539 46.9177 12.1071 48.174 11.9045C48.7008 11.8133 49.2478 11.8944 49.7848 11.8843C51.0309 11.8539 52.277 11.864 53.5129 11.7424C54.0904 11.6816 54.3234 11.1954 54.212 10.5672C54.1512 10.2532 54.2829 9.90873 54.2829 9.58454C54.293 6.85932 54.2829 4.13411 54.2829 1.40889C54.2829 0.395798 54.83 0.0209538 55.8532 0.122263C56.8764 0.213441 57.9098 0.142525 58.9431 0.152656C60.0474 0.152656 60.2905 0.446452 60.1791 1.52033C60.1386 1.9357 60.2601 2.3612 60.2601 2.77656C60.2601 3.25272 60.169 3.739 60.169 4.21515C60.1588 11.2156 60.169 18.2262 60.169 25.2267C60.169 26.3816 60.1791 27.5365 60.169 28.6915C60.1588 29.5019 59.6422 29.816 58.8418 29.7248C57.8692 29.6235 56.8865 29.6742 55.914 29.6742C54.4653 29.664 54.1917 29.431 54.1715 27.9722C54.1613 27.344 54.2626 26.7159 54.2829 26.0878C54.3032 25.409 54.293 24.7201 54.293 24.0312C54.293 22.4305 54.293 20.84 54.293 19.2393C54.293 17.5576 53.8371 17.588 52.51 17.4461C51.3652 17.3144 50.1799 17.5171 49.0148 17.5272C48.4272 17.5373 47.8396 17.4664 47.252 17.4056C46.7252 17.3448 46.4416 17.6589 46.3099 18.0743C46.1782 18.4896 46.1174 18.9354 46.1275 19.371C46.1478 20.7488 46.2288 22.1266 46.2389 23.4943C46.2389 24.7404 46.1579 25.9865 46.1275 27.2326C46.1174 27.7695 46.1883 28.3166 46.1072 28.8333C45.9755 29.6742 45.7425 29.7349 44.8814 29.6944C43.7265 29.6336 42.5716 29.6438 41.4166 29.6843C40.3022 29.7248 40.0591 29.5121 40.0996 28.3369C40.1401 26.7362 40.1097 25.1659 40.1097 23.5855Z" fill="white"/>
<path d="M21.5802 14.7007C21.5802 10.1417 21.5802 5.58283 21.5802 1.03405C21.5802 0.223574 22.0361 0.00069327 22.8364 0.102002C23.8191 0.223573 24.8423 0.193181 25.8352 0.102002C26.8584 0.0108242 27.3447 0.50724 27.1826 1.5102C27.0914 2.08766 27.1927 2.70565 27.2636 3.30337C27.2839 3.45534 27.5473 3.69848 27.6689 3.68835C27.912 3.65796 28.1855 3.51612 28.3476 3.33377C29.1277 2.44225 29.8369 1.48994 30.6575 0.62881C30.9209 0.345145 31.4274 0.162788 31.8327 0.152657C33.7272 0.102003 35.6216 0.122265 37.5161 0.132395C38.2861 0.132395 38.5393 0.557894 38.4988 1.34811C38.4583 2.33081 38.5596 3.32363 38.5697 4.31646C38.5697 4.73183 38.5393 5.15733 38.438 5.56257C38.3165 6.05898 37.891 6.14003 37.4351 6.1299C34.5174 6.1299 31.5997 6.14003 28.682 6.11977C27.5676 6.11977 27.3447 6.35278 27.2535 7.25443C27.1319 8.41949 27.1522 9.60481 27.2535 10.7699C27.3244 11.6209 27.7398 11.8741 28.6313 11.8741C30.931 11.8741 33.2307 11.8741 35.5305 11.8741C36.4119 11.8741 36.6449 12.1274 36.6651 12.9885C36.6955 14.0827 36.7462 15.1869 36.7867 16.2811C36.8171 17.0612 36.1383 17.6082 35.3785 17.4259C35.1961 17.3854 35.0036 17.3651 34.8112 17.3651C33.5144 17.4056 32.2278 17.4563 30.931 17.4867C30.1611 17.5069 29.3911 17.4563 28.6212 17.4968C27.598 17.5576 27.2028 18.0033 27.2028 19.0063C27.2028 20.1308 27.1927 21.2655 27.213 22.39C27.2231 22.8054 27.2636 23.2309 27.3548 23.6361C27.4764 24.1528 27.8816 24.2642 28.378 24.2642C31.2552 24.2541 34.1223 24.2642 36.9994 24.2541C38.2759 24.2541 38.6103 24.629 38.5799 25.8548C38.5596 26.7058 38.5799 27.5568 38.5697 28.4078C38.5596 29.2993 38.2253 29.6235 37.3439 29.6235C32.4203 29.6235 27.4966 29.6235 22.5831 29.6235C21.8233 29.6235 21.5802 29.3804 21.5802 28.6003C21.5701 23.9907 21.5802 19.3406 21.5802 14.7007Z" fill="white"/>
</svg>
