<svg width="23" height="23" viewBox="0 0 23 23" fill="none" xmlns="http://www.w3.org/2000/svg">
<path d="M8.23633 3.06089C7.28242 3.10148 6.63295 3.2537 6.06467 3.47695C5.48624 3.71035 4.98899 4.01479 4.49174 4.51204C3.9945 5.00929 3.69006 5.50654 3.4668 6.09511C3.24355 6.6634 3.10148 7.31287 3.05074 8.26677C3.01015 9.22067 3 9.52511 3 11.9505C3.01015 14.3758 3.0203 14.6803 3.06089 15.6342C3.10148 16.5881 3.2537 17.2375 3.47695 17.7957C3.71035 18.3842 4.01479 18.8815 4.51204 19.3787C5.00929 19.876 5.50654 20.1804 6.09511 20.4037C6.6634 20.6269 7.31287 20.769 8.26677 20.8197C9.22067 20.8603 9.52511 20.8705 11.9505 20.8705C14.3758 20.8603 14.6803 20.8603 15.6342 20.8096C16.5881 20.769 17.2375 20.6168 17.8058 20.3935C18.3944 20.1601 18.8916 19.8557 19.3889 19.3584C19.8861 18.8612 20.1906 18.3639 20.4138 17.7754C20.6371 17.2071 20.7792 16.5576 20.8299 15.6037C20.8705 14.6498 20.8806 14.3454 20.8806 11.92C20.8705 9.49467 20.8705 9.19023 20.8197 8.23633C20.7792 7.28242 20.6269 6.63295 20.4037 6.06467C20.1703 5.47609 19.8658 4.97884 19.3686 4.4816C18.8713 3.98435 18.3741 3.67991 17.7855 3.45666C17.2172 3.2334 16.5678 3.09133 15.6139 3.04059C14.6498 3.01015 14.3454 3 11.92 3C9.49467 3.01015 9.19023 3.0203 8.23633 3.06089ZM8.3378 19.2062C7.46508 19.1656 6.99828 19.0236 6.68369 18.9018C6.26763 18.7394 5.97334 18.5466 5.65875 18.232C5.34417 17.9174 5.15136 17.6231 4.98899 17.2071C4.86722 16.8925 4.715 16.4155 4.67441 15.553C4.63381 14.6092 4.62367 14.3251 4.61352 11.9403C4.61352 9.55555 4.61352 9.27141 4.65411 8.32766C4.6947 7.45494 4.83677 6.98813 4.95855 6.67355C5.12091 6.25748 5.31373 5.96319 5.62831 5.64861C5.9429 5.33402 6.23719 5.14121 6.65325 4.97884C6.96784 4.85707 7.44479 4.715 8.30736 4.66426C9.25112 4.62367 9.53526 4.61352 11.9099 4.60337C14.2946 4.60337 14.5788 4.60337 15.5225 4.64396C16.3953 4.68455 16.8621 4.82663 17.1766 4.9484C17.5927 5.11077 17.8971 5.30358 18.2016 5.61816C18.5162 5.93275 18.709 6.22704 18.8713 6.6431C18.9931 6.95769 19.1352 7.43464 19.1859 8.29721C19.2265 9.24097 19.2367 9.52511 19.2468 11.8997C19.257 14.2845 19.2468 14.5686 19.2062 15.5124C19.1656 16.3851 19.0236 16.8519 18.9018 17.1766C18.7394 17.5927 18.5466 17.887 18.232 18.2016C17.9174 18.5162 17.6231 18.709 17.2071 18.8713C16.8925 18.9931 16.4155 19.1352 15.553 19.1859C14.6092 19.2265 14.3251 19.2367 11.9403 19.2468C9.5657 19.257 9.28156 19.2468 8.3378 19.2062ZM15.624 7.16065C15.624 7.74923 16.1111 8.22618 16.6997 8.22618C17.2883 8.22618 17.7754 7.73908 17.7652 7.1505C17.7652 6.56192 17.2781 6.08497 16.6895 6.08497C16.101 6.08497 15.624 6.57207 15.624 7.16065ZM7.35346 11.9403C7.35346 14.4773 9.41348 16.517 11.9505 16.517C14.4773 16.5069 16.5272 14.457 16.5272 11.92C16.517 9.39319 14.4671 7.33316 11.9302 7.34331C9.39319 7.35346 7.34331 9.41348 7.35346 11.9403ZM8.95683 11.9403C8.95683 10.2964 10.2862 8.96698 11.9302 8.95683C13.5741 8.95683 14.9137 10.2862 14.9137 11.9302C14.9137 13.5741 13.5843 14.9137 11.9403 14.9137C10.2964 14.9137 8.96698 13.5843 8.95683 11.9403Z" fill="#666666"/>
</svg>
