<svg width="23" height="23" viewBox="0 0 23 23" fill="none" xmlns="http://www.w3.org/2000/svg">
<path d="M20.6034 7.03021C20.3844 6.23165 19.7409 5.60169 18.9239 5.38868C17.4417 5 11.5005 5 11.5005 5C11.5005 5 5.5583 5 4.07714 5.38868C3.26013 5.60169 2.6156 6.23165 2.39663 7.03021C2 8.47892 2 11.5005 2 11.5005C2 11.5005 2 14.5221 2.39663 15.9708C2.6156 16.7704 3.25909 17.3993 4.07714 17.6123C5.55934 18 11.5005 18 11.5005 18C11.5005 18 17.4417 18 18.9239 17.6123C19.7409 17.3983 20.3854 16.7694 20.6034 15.9708C21 14.5221 21 11.5005 21 11.5005C21 11.5005 21 8.47892 20.6034 7.03021ZM9.6 14.2859V8.71414L14.5362 11.5005L9.6 14.2859Z" fill="#666666"/>
</svg>
