<svg xmlns="http://www.w3.org/2000/svg" width="229" height="46.553" viewBox="0 0 229 46.553">
  <g id="logo_w" transform="translate(802 1112)">
    <path id="path178" d="M412.971,672.744a11.93,11.93,0,0,0-4.876-1.377c-1.377,0-2.258.5-2.258,1.265,0,2.326,7.834,1.671,7.834,7.044,0,2.958-2.483,4.674-5.914,4.674a10.438,10.438,0,0,1-5.555-1.491v-3.319c2.213,1.468,3.568,1.987,5.261,1.987,1.467,0,2.258-.518,2.258-1.422,0-2.529-7.835-1.6-7.835-7.134,0-2.664,2.3-4.425,5.871-4.425a12.589,12.589,0,0,1,5.215,1.2v3" transform="translate(-1153.927 -1757.795)" fill="#fff"/>
    <path id="path180" d="M434.935,686.046c-.339,0-.542-.2-.542-.722v-4.741c0-2.281-1.783-3.16-4.4-3.16a8.463,8.463,0,0,0-4.515,1.263v2.664a5.683,5.683,0,0,1,3.838-1.738c1.422,0,1.874.767,1.806,1.738-4.356,1.355-6.186,1.852-6.186,4.335a2.777,2.777,0,0,0,2.913,2.552,5.814,5.814,0,0,0,3.431-1.175c.226.836.745,1.175,1.828,1.175a6.824,6.824,0,0,0,3.07-.948v-1.83c-.767.542-1.016.587-1.241.587Zm-3.816-.541a2.769,2.769,0,0,1-1.806.79,1.085,1.085,0,0,1-1.061-1.106c0-1.038.926-1.491,2.867-2.191v2.507" transform="translate(-1164.021 -1761.683)" fill="#fff"/>
    <path id="path182" d="M444.2,677.782h3.5l2.212,5.734,2.236-5.734h3.476l-4.786,10.612h-1.828L444.2,677.782" transform="translate(-1172.46 -1761.84)" fill="#fff"/>
    <path id="path184" d="M468.669,683.359h7.473c.159-3.793-2.348-5.937-5.373-5.937a5.252,5.252,0,0,0-5.486,5.441c0,3.25,2.371,5.373,6.028,5.373a7.542,7.542,0,0,0,4.651-1.377V684.8a6.112,6.112,0,0,1-3.861,1.491c-2.054,0-3.319-1.083-3.431-2.935Zm2.326-4a2.239,2.239,0,0,1,2.258,2.281h-4.516a2.213,2.213,0,0,1,2.258-2.281" transform="translate(-1181.691 -1761.683)" fill="#fff"/>
    <path id="path186" d="M504.552,677.467h-3.793v4.29a1.512,1.512,0,0,0,1.6,1.669,4.552,4.552,0,0,0,2.189-.608v2.371a7.412,7.412,0,0,1-3.025.655c-2.167,0-4.041-.993-4.041-3.906v-4.47H496v-.632l4.357-4.877h.406v3.274h3.793v2.236" transform="translate(-1195.141 -1759.289)" fill="#fff"/>
    <path id="path188" d="M516.772,675.432h.045a4.023,4.023,0,0,1,3.3-1.738,3.648,3.648,0,0,1,3.815,3.974V684.3h-3.274v-5.938c0-1.557-.677-2.279-1.693-2.279-.767,0-1.422.474-2.189,1.581V684.3H513.5v-15.4h3.274v6.524" transform="translate(-1202.806 -1757.954)" fill="#fff"/>
    <path id="path190" d="M538.486,683.359h7.473c.157-3.793-2.348-5.937-5.373-5.937a5.251,5.251,0,0,0-5.486,5.441c0,3.25,2.37,5.373,6.027,5.373a7.538,7.538,0,0,0,4.651-1.377V684.8a6.106,6.106,0,0,1-3.86,1.491c-2.054,0-3.319-1.083-3.431-2.935Zm2.324-4a2.239,2.239,0,0,1,2.258,2.281h-4.515a2.211,2.211,0,0,1,2.257-2.281" transform="translate(-1212.266 -1761.683)" fill="#fff"/>
    <path id="path192" d="M582.231,682.813a11.955,11.955,0,0,1-6.051,1.536c-5.982,0-8.962-3.884-8.962-7.858,0-4.109,3.364-7.946,9.256-7.946a10.857,10.857,0,0,1,5.577,1.355v3.431a10.744,10.744,0,0,0-5.306-1.581c-3.274,0-5.577,1.942-5.577,4.674,0,2.754,2.281,4.719,5.487,4.719,2.009,0,3.364-.632,5.576-1.693v3.364" transform="translate(-1226.332 -1757.795)" fill="#fff"/>
    <path id="path194" d="M601.259,675.432h.045a4.023,4.023,0,0,1,3.3-1.738,3.648,3.648,0,0,1,3.815,3.974V684.3h-3.274v-5.938c0-1.557-.677-2.279-1.693-2.279-.767,0-1.422.474-2.189,1.581V684.3h-3.274v-15.4h3.274v6.524" transform="translate(-1239.806 -1757.954)" fill="#fff"/>
    <path id="path196" d="M620.63,688.191H623.9V677.783H620.63Z" transform="translate(-1249.723 -1761.841)" fill="#fff"/>
    <path id="path198" d="M623.921,670.35a1.806,1.806,0,1,1-1.806-1.806,1.812,1.812,0,0,1,1.806,1.806" transform="translate(-1249.583 -1757.795)" fill="#fff"/>
    <path id="path200" d="M630.713,684.3h3.274v-15.4h-3.274Z" transform="translate(-1254.139 -1757.954)" fill="#fff"/>
    <path id="path202" d="M647.437,668.907v5.441a6.05,6.05,0,0,0-2.709-.655c-2.98,0-5.057,2.212-5.057,5.4,0,3.115,2.077,5.418,4.876,5.418a4.27,4.27,0,0,0,2.89-1.038v.835h3.274v-15.4Zm0,12.552a2.746,2.746,0,0,1-1.942.857c-1.534,0-2.505-1.265-2.505-3.16,0-2.077.971-3.274,2.618-3.274a3.542,3.542,0,0,1,1.83.61v4.967" transform="translate(-1258.061 -1757.953)" fill="#fff"/>
    <path id="path204" d="M666.714,680.605h.045c.969-2.167,2.054-3.183,3.318-3.183a3.559,3.559,0,0,1,2.168.947l-.9,2.89a3.765,3.765,0,0,0-1.942-.767c-1.2,0-1.963,1.128-2.685,3.048v4.492H663.44V677.625h3.274v2.98" transform="translate(-1268.471 -1761.683)" fill="#fff"/>
    <path id="path206" d="M682.934,683.359h7.473c.157-3.793-2.348-5.937-5.373-5.937a5.251,5.251,0,0,0-5.486,5.441c0,3.25,2.37,5.373,6.028,5.373a7.536,7.536,0,0,0,4.65-1.377V684.8a6.106,6.106,0,0,1-3.86,1.491c-2.054,0-3.319-1.083-3.431-2.935Zm2.326-4a2.238,2.238,0,0,1,2.257,2.281H683a2.213,2.213,0,0,1,2.258-2.281" transform="translate(-1275.525 -1761.683)" fill="#fff"/>
    <path id="path208" d="M705.1,679.114a4.192,4.192,0,0,1,3.386-1.692,3.643,3.643,0,0,1,3.793,4v6.614h-3.274v-6.344c0-1.467-.7-2.077-1.624-2.077-.814,0-1.423.429-2.281,1.716v6.705H701.83V677.624H705.1v1.489" transform="translate(-1285.283 -1761.682)" fill="#fff"/>
    <path id="path210" d="M354.393,640.764c2.075-2.134,3-3.122,2.852-3.707a1.961,1.961,0,0,0-1.186-1.148,3.032,3.032,0,0,0-2.2-.26,7.488,7.488,0,0,0-1.164,1.062l-.655.642h0c-.36-.42-.743-.842-1.123-1.221a20.687,20.687,0,0,0-10.074-5.542,6.344,6.344,0,0,0-5.455-2.5,6.143,6.143,0,0,0-4.374,2.543,23.207,23.207,0,0,0-10.775,5.833v0a4.79,4.79,0,0,0-2.919.333,1.463,1.463,0,0,0-.909.887c-.067.266.014.694,1.008,2v0a22.861,22.861,0,0,0-4.387,14.491,20.881,20.881,0,0,0,6.049,13.793,20.585,20.585,0,0,0,4.3,3.3h0a25.458,25.458,0,0,0,23.732.79l.014-.006a1.29,1.29,0,0,0,.621-1.661l-.074-.205c-1.008-2.753-4.076-11.133-1.547-18.413,1.06-3.046,3.724-6.186,6.007-8.635h0a20.307,20.307,0,0,1,2.417,11.91,18.555,18.555,0,0,1-4.405,10.2h0a.435.435,0,0,0-.119.3.734.734,0,0,0,.022.141l.194.551a.44.44,0,0,0,.732.145h.014c6.474-7.142,7.894-17.489,3.422-25.618h0ZM326.875,656.5a42.039,42.039,0,0,0-1.388,12.333v0a21.021,21.021,0,0,1-4.092-3.179,20.647,20.647,0,0,1-5.951-12.335,19.138,19.138,0,0,1,2.913-12.465h0c.741.887,1.64,1.912,2.581,2.983a64.212,64.212,0,0,1,6.146,7.664c.711,1.2.365,2.629-.208,5Zm22.767-16.92c-4.872,4.269-9.34,6.457-13.269,6.483a15.955,15.955,0,0,1-9.287-3.316,36.5,36.5,0,0,1-5.716-5.215l-.119-.128h0a18.621,18.621,0,0,1,8.58-4.537s0,0,0,0h0s0,0,0,0a9.351,9.351,0,0,0-.455,3.871,8.807,8.807,0,0,0,2.961,5.985,5.9,5.9,0,0,0,8.594-.752,8.8,8.8,0,0,0,1.876-6.408,9.722,9.722,0,0,0-.2-1.308h0a20.79,20.79,0,0,1,5.993,4.193c.355.357.708.735,1.048,1.13h0" transform="translate(-1115.003 -1740.069)" fill="#ed1b2d"/>
  </g>
</svg>
