<svg width="92" height="40" viewBox="0 0 92 40" fill="none" xmlns="http://www.w3.org/2000/svg">
<g clip-path="url(#clip0_12_256)">
<path d="M20.0158 40C31.061 40 40.0316 31.0558 40.0316 20.0044C40.0316 8.95247 31.061 0 20.0158 0C8.95351 0 0 8.95247 0 20.0044C0 31.0558 8.95351 40 20.0158 40Z" fill="#A50034"/>
<path d="M19.2109 11.2254V28.7746H24.79V27.1966H20.8189V11.2254H19.2109Z" fill="white"/>
<path d="M13.6238 16.0137C14.9511 16.0137 16.021 14.9344 16.021 13.6164C16.021 12.2974 14.9511 11.214 13.6238 11.214C12.2965 11.214 11.2266 12.2974 11.2266 13.6164C11.2266 14.9355 12.2965 16.0137 13.6238 16.0137Z" fill="white"/>
<path d="M20.8176 3.26467C20.6083 3.25431 20.2106 3.24137 20.0206 3.24137C10.7817 3.24137 3.2627 10.763 3.2627 19.9961C3.2627 24.4809 5.00534 28.6845 8.16177 31.8456C11.3312 34.9994 15.5368 36.7421 20.0206 36.7421C24.4872 36.7421 28.6918 34.9994 31.8555 31.8456C35.0197 28.6845 36.7706 24.4809 36.7706 19.9961V19.2509H36.0927H24.8047V20.7931H35.1746C35.1746 20.8268 35.1746 20.9904 35.1673 21.0329C34.6401 28.9263 28.0476 35.1781 20.0206 35.1781C15.9573 35.1781 12.1473 33.5981 9.27986 30.7285C6.40308 27.8709 4.81787 24.064 4.81787 19.9956C4.81787 15.9505 6.40308 12.1239 9.27986 9.2575C12.1473 6.39366 15.9573 4.81363 20.0206 4.81363C20.1956 4.81363 20.6213 4.81363 20.8176 4.82399V3.26467Z" fill="white"/>
<path d="M55.0849 6.73339H49.0703V32.771H67.5439V27.7026H55.0849V6.73339ZM80.775 22.8486H85.6736V27.4012C84.7704 27.7451 83.0091 28.0879 81.3333 28.0879C75.92 28.0879 74.1167 25.3385 74.1167 19.7543C74.1167 14.429 75.834 11.2891 81.2473 11.2891C84.2556 11.2891 85.9739 12.2348 87.3898 14.0395L91.1294 10.6014C88.8518 7.33878 84.8553 6.35068 81.1189 6.35068C72.6962 6.35068 68.272 10.9473 68.272 19.7108C68.272 28.4318 72.2674 33.1573 81.0764 33.1573C85.1143 33.1573 89.0672 32.1268 91.2143 30.6234V17.9925H80.775V22.8486Z" fill="white"/>
</g>
<defs>
<clipPath id="clip0_12_256">
<rect width="91.214" height="40" fill="white"/>
</clipPath>
</defs>
</svg>
